<svg width="375" height="135" viewBox="0 0 375 135" fill="none" xmlns="http://www.w3.org/2000/svg">
<g filter="url(#filter0_d_33_416)">
<rect width="370" height="130" rx="36" fill="white"/>
<rect x="49" y="60" width="5" height="50" rx="2.5" fill="#60A0FF"/>
<rect x="59" y="40" width="5" height="70" rx="2.5" fill="#FF5E74"/>
<rect x="78" y="40" width="5" height="70" rx="2.5" fill="#60A0FF"/>
<rect x="88" y="55" width="5" height="55" rx="2.5" fill="#FF5E74"/>
<rect x="107" y="87" width="5" height="23" rx="2.5" fill="#60A0FF"/>
<rect x="136" y="48" width="5" height="62" rx="2.5" fill="#60A0FF"/>
<rect x="165" y="60" width="5" height="50" rx="2.5" fill="#60A0FF"/>
<rect x="194" y="36" width="5" height="74" rx="2.5" fill="#60A0FF"/>
<rect x="223" y="69" width="5" height="41" rx="2.5" fill="#60A0FF"/>
<rect x="252" y="75" width="5" height="35" rx="2.5" fill="#60A0FF"/>
<rect x="281" y="69" width="5" height="41" rx="2.5" fill="#60A0FF"/>
<rect x="310" y="87" width="5" height="23" rx="2.5" fill="#60A0FF"/>
<rect x="117" y="58" width="5" height="52" rx="2.5" fill="#FF5E74"/>
<rect x="146" y="75" width="5" height="35" rx="2.5" fill="#FF5E74"/>
<rect x="175" y="58" width="5" height="52" rx="2.5" fill="#FF5E74"/>
<rect x="204" y="80" width="5" height="30" rx="2.5" fill="#FF5E74"/>
<rect x="233" y="58" width="5" height="52" rx="2.5" fill="#FF5E74"/>
<rect x="262" y="48" width="5" height="62" rx="2.5" fill="#FF5E74"/>
<rect x="291" y="87" width="5" height="23" rx="2.5" fill="#FF5E74"/>
<rect x="320" y="48" width="5" height="62" rx="2.5" fill="#FF5E74"/>
<path d="M48.4 119V113.24H50.32L51.92 118.792H51.224L52.824 113.24H54.752V119H53.536V113.584H53.744L52.184 119H50.912L49.368 113.632H49.568V119H48.4ZM57.5644 119.08C57.1164 119.08 56.7218 118.992 56.3804 118.816C56.0444 118.635 55.7804 118.384 55.5884 118.064C55.4018 117.739 55.3084 117.365 55.3084 116.944C55.3084 116.523 55.4018 116.155 55.5884 115.84C55.7804 115.525 56.0444 115.28 56.3804 115.104C56.7218 114.928 57.1164 114.84 57.5644 114.84C58.0178 114.84 58.4124 114.928 58.7484 115.104C59.0898 115.28 59.3538 115.525 59.5404 115.84C59.7271 116.155 59.8204 116.523 59.8204 116.944C59.8204 117.365 59.7244 117.739 59.5324 118.064C59.3458 118.384 59.0818 118.635 58.7404 118.816C58.4044 118.992 58.0124 119.08 57.5644 119.08ZM57.5644 118.136C57.7511 118.136 57.9191 118.088 58.0684 117.992C58.2231 117.896 58.3458 117.76 58.4364 117.584C58.5271 117.403 58.5724 117.187 58.5724 116.936C58.5724 116.568 58.4738 116.285 58.2764 116.088C58.0844 115.885 57.8471 115.784 57.5644 115.784C57.2818 115.784 57.0418 115.885 56.8444 116.088C56.6524 116.291 56.5564 116.573 56.5564 116.936C56.5564 117.187 56.6018 117.403 56.6924 117.584C56.7831 117.76 56.9031 117.896 57.0524 117.992C57.2071 118.088 57.3778 118.136 57.5644 118.136ZM60.4566 119V114.92H61.6326V115.88H61.6566V119H60.4566ZM63.2966 119V116.472C63.2966 116.248 63.2379 116.08 63.1206 115.968C63.0086 115.856 62.8432 115.8 62.6246 115.8C62.4379 115.8 62.2699 115.843 62.1206 115.928C61.9766 116.013 61.8619 116.131 61.7766 116.28C61.6966 116.429 61.6566 116.605 61.6566 116.808L61.5526 115.824C61.6859 115.525 61.8806 115.288 62.1366 115.112C62.3979 114.931 62.7179 114.84 63.0966 114.84C63.5499 114.84 63.8966 114.968 64.1366 115.224C64.3766 115.475 64.4966 115.813 64.4966 116.24V119H63.2966Z" fill="black"/>
<path d="M252.4 119V113.24H254.32L255.92 118.792H255.224L256.824 113.24H258.752V119H257.536V113.584H257.744L256.184 119H254.912L253.368 113.632H253.568V119H252.4ZM261.564 119.08C261.116 119.08 260.722 118.992 260.38 118.816C260.044 118.635 259.78 118.384 259.588 118.064C259.402 117.739 259.308 117.365 259.308 116.944C259.308 116.523 259.402 116.155 259.588 115.84C259.78 115.525 260.044 115.28 260.38 115.104C260.722 114.928 261.116 114.84 261.564 114.84C262.018 114.84 262.412 114.928 262.748 115.104C263.09 115.28 263.354 115.525 263.54 115.84C263.727 116.155 263.82 116.523 263.82 116.944C263.82 117.365 263.724 117.739 263.532 118.064C263.346 118.384 263.082 118.635 262.74 118.816C262.404 118.992 262.012 119.08 261.564 119.08ZM261.564 118.136C261.751 118.136 261.919 118.088 262.068 117.992C262.223 117.896 262.346 117.76 262.436 117.584C262.527 117.403 262.572 117.187 262.572 116.936C262.572 116.568 262.474 116.285 262.276 116.088C262.084 115.885 261.847 115.784 261.564 115.784C261.282 115.784 261.042 115.885 260.844 116.088C260.652 116.291 260.556 116.573 260.556 116.936C260.556 117.187 260.602 117.403 260.692 117.584C260.783 117.76 260.903 117.896 261.052 117.992C261.207 118.088 261.378 118.136 261.564 118.136ZM264.457 119V114.92H265.633V115.88H265.657V119H264.457ZM267.297 119V116.472C267.297 116.248 267.238 116.08 267.121 115.968C267.009 115.856 266.843 115.8 266.625 115.8C266.438 115.8 266.27 115.843 266.121 115.928C265.977 116.013 265.862 116.131 265.777 116.28C265.697 116.429 265.657 116.605 265.657 116.808L265.553 115.824C265.686 115.525 265.881 115.288 266.137 115.112C266.398 114.931 266.718 114.84 267.097 114.84C267.55 114.84 267.897 114.968 268.137 115.224C268.377 115.475 268.497 115.813 268.497 116.24V119H267.297Z" fill="black"/>
<path d="M80.072 119V114.184H78.192V113.24H83.184V114.184H81.304V119H80.072ZM84.4563 119.08C84.1683 119.08 83.9203 119.019 83.7122 118.896C83.5096 118.768 83.3549 118.6 83.2483 118.392C83.1416 118.179 83.0883 117.941 83.0883 117.68V114.92H84.2883V117.448C84.2883 117.672 84.3443 117.84 84.4563 117.952C84.5683 118.064 84.7256 118.12 84.9283 118.12C85.1096 118.12 85.2696 118.077 85.4083 117.992C85.5469 117.907 85.6563 117.789 85.7363 117.64C85.8216 117.485 85.8643 117.309 85.8643 117.112L85.9683 118.096C85.8349 118.389 85.6403 118.627 85.3843 118.808C85.1283 118.989 84.8189 119.08 84.4563 119.08ZM85.8883 119V118.04H85.8643V114.92H87.0642V119H85.8883ZM89.9234 119.08C89.4701 119.08 89.0754 118.992 88.7394 118.816C88.4034 118.635 88.1421 118.384 87.9554 118.064C87.7741 117.744 87.6834 117.376 87.6834 116.96C87.6834 116.539 87.7741 116.171 87.9554 115.856C88.1421 115.536 88.4008 115.288 88.7314 115.112C89.0621 114.931 89.4461 114.84 89.8834 114.84C90.3048 114.84 90.6701 114.925 90.9794 115.096C91.2888 115.267 91.5288 115.504 91.6994 115.808C91.8701 116.112 91.9554 116.469 91.9554 116.88C91.9554 116.965 91.9528 117.045 91.9474 117.12C91.9421 117.189 91.9341 117.256 91.9234 117.32H88.3874V116.528H90.9554L90.7474 116.672C90.7474 116.341 90.6674 116.099 90.5074 115.944C90.3528 115.784 90.1394 115.704 89.8674 115.704C89.5528 115.704 89.3074 115.811 89.1314 116.024C88.9608 116.237 88.8754 116.557 88.8754 116.984C88.8754 117.4 88.9608 117.709 89.1314 117.912C89.3074 118.115 89.5688 118.216 89.9154 118.216C90.1074 118.216 90.2728 118.184 90.4114 118.12C90.5501 118.056 90.6541 117.952 90.7234 117.808H91.8514C91.7181 118.203 91.4888 118.515 91.1634 118.744C90.8434 118.968 90.4301 119.08 89.9234 119.08Z" fill="black"/>
<path d="M284.072 119V114.184H282.192V113.24H287.184V114.184H285.304V119H284.072ZM288.456 119.08C288.168 119.08 287.92 119.019 287.712 118.896C287.51 118.768 287.355 118.6 287.248 118.392C287.142 118.179 287.088 117.941 287.088 117.68V114.92H288.288V117.448C288.288 117.672 288.344 117.84 288.456 117.952C288.568 118.064 288.726 118.12 288.928 118.12C289.11 118.12 289.27 118.077 289.408 117.992C289.547 117.907 289.656 117.789 289.736 117.64C289.822 117.485 289.864 117.309 289.864 117.112L289.968 118.096C289.835 118.389 289.64 118.627 289.384 118.808C289.128 118.989 288.819 119.08 288.456 119.08ZM289.888 119V118.04H289.864V114.92H291.064V119H289.888ZM293.923 119.08C293.47 119.08 293.075 118.992 292.739 118.816C292.403 118.635 292.142 118.384 291.955 118.064C291.774 117.744 291.683 117.376 291.683 116.96C291.683 116.539 291.774 116.171 291.955 115.856C292.142 115.536 292.401 115.288 292.731 115.112C293.062 114.931 293.446 114.84 293.883 114.84C294.305 114.84 294.67 114.925 294.979 115.096C295.289 115.267 295.529 115.504 295.699 115.808C295.87 116.112 295.955 116.469 295.955 116.88C295.955 116.965 295.953 117.045 295.947 117.12C295.942 117.189 295.934 117.256 295.923 117.32H292.387V116.528H294.955L294.747 116.672C294.747 116.341 294.667 116.099 294.507 115.944C294.353 115.784 294.139 115.704 293.867 115.704C293.553 115.704 293.307 115.811 293.131 116.024C292.961 116.237 292.875 116.557 292.875 116.984C292.875 117.4 292.961 117.709 293.131 117.912C293.307 118.115 293.569 118.216 293.915 118.216C294.107 118.216 294.273 118.184 294.411 118.12C294.55 118.056 294.654 117.952 294.723 117.808H295.851C295.718 118.203 295.489 118.515 295.163 118.744C294.843 118.968 294.43 119.08 293.923 119.08Z" fill="black"/>
<path d="M107.896 119L106.272 113.24H107.52L108.864 118.512H108.472L109.672 113.24H111.072L112.256 118.512H111.872L113.224 113.24H114.416L112.792 119H111.416L110.192 113.832H110.512L109.272 119H107.896ZM116.588 119.08C116.134 119.08 115.74 118.992 115.404 118.816C115.068 118.635 114.806 118.384 114.62 118.064C114.438 117.744 114.348 117.376 114.348 116.96C114.348 116.539 114.438 116.171 114.62 115.856C114.806 115.536 115.065 115.288 115.396 115.112C115.726 114.931 116.11 114.84 116.548 114.84C116.969 114.84 117.334 114.925 117.644 115.096C117.953 115.267 118.193 115.504 118.364 115.808C118.534 116.112 118.62 116.469 118.62 116.88C118.62 116.965 118.617 117.045 118.612 117.12C118.606 117.189 118.598 117.256 118.588 117.32H115.052V116.528H117.62L117.412 116.672C117.412 116.341 117.332 116.099 117.172 115.944C117.017 115.784 116.804 115.704 116.532 115.704C116.217 115.704 115.972 115.811 115.796 116.024C115.625 116.237 115.54 116.557 115.54 116.984C115.54 117.4 115.625 117.709 115.796 117.912C115.972 118.115 116.233 118.216 116.58 118.216C116.772 118.216 116.937 118.184 117.076 118.12C117.214 118.056 117.318 117.952 117.388 117.808H118.516C118.382 118.203 118.153 118.515 117.828 118.744C117.508 118.968 117.094 119.08 116.588 119.08ZM122.212 119V118.096L122.292 118.112C122.238 118.405 122.078 118.64 121.812 118.816C121.55 118.992 121.236 119.08 120.868 119.08C120.494 119.08 120.169 118.995 119.892 118.824C119.62 118.648 119.409 118.403 119.26 118.088C119.11 117.773 119.036 117.403 119.036 116.976C119.036 116.544 119.113 116.168 119.268 115.848C119.422 115.528 119.638 115.28 119.916 115.104C120.198 114.928 120.526 114.84 120.9 114.84C121.289 114.84 121.604 114.931 121.844 115.112C122.089 115.293 122.233 115.541 122.276 115.856L122.188 115.864V113.24H123.388V119H122.212ZM121.252 118.12C121.534 118.12 121.764 118.021 121.94 117.824C122.116 117.621 122.204 117.333 122.204 116.96C122.204 116.587 122.113 116.301 121.932 116.104C121.756 115.901 121.524 115.8 121.236 115.8C120.958 115.8 120.729 115.901 120.548 116.104C120.372 116.307 120.284 116.595 120.284 116.968C120.284 117.341 120.372 117.627 120.548 117.824C120.729 118.021 120.964 118.12 121.252 118.12Z" fill="black"/>
<path d="M311.896 119L310.272 113.24H311.52L312.864 118.512H312.472L313.672 113.24H315.072L316.256 118.512H315.872L317.224 113.24H318.416L316.792 119H315.416L314.192 113.832H314.512L313.272 119H311.896ZM320.588 119.08C320.134 119.08 319.74 118.992 319.404 118.816C319.068 118.635 318.806 118.384 318.62 118.064C318.438 117.744 318.348 117.376 318.348 116.96C318.348 116.539 318.438 116.171 318.62 115.856C318.806 115.536 319.065 115.288 319.396 115.112C319.726 114.931 320.11 114.84 320.548 114.84C320.969 114.84 321.334 114.925 321.644 115.096C321.953 115.267 322.193 115.504 322.364 115.808C322.534 116.112 322.62 116.469 322.62 116.88C322.62 116.965 322.617 117.045 322.612 117.12C322.606 117.189 322.598 117.256 322.588 117.32H319.052V116.528H321.62L321.412 116.672C321.412 116.341 321.332 116.099 321.172 115.944C321.017 115.784 320.804 115.704 320.532 115.704C320.217 115.704 319.972 115.811 319.796 116.024C319.625 116.237 319.54 116.557 319.54 116.984C319.54 117.4 319.625 117.709 319.796 117.912C319.972 118.115 320.233 118.216 320.58 118.216C320.772 118.216 320.937 118.184 321.076 118.12C321.214 118.056 321.318 117.952 321.388 117.808H322.516C322.382 118.203 322.153 118.515 321.828 118.744C321.508 118.968 321.094 119.08 320.588 119.08ZM326.212 119V118.096L326.292 118.112C326.238 118.405 326.078 118.64 325.812 118.816C325.55 118.992 325.236 119.08 324.868 119.08C324.494 119.08 324.169 118.995 323.892 118.824C323.62 118.648 323.409 118.403 323.26 118.088C323.11 117.773 323.036 117.403 323.036 116.976C323.036 116.544 323.113 116.168 323.268 115.848C323.422 115.528 323.638 115.28 323.916 115.104C324.198 114.928 324.526 114.84 324.9 114.84C325.289 114.84 325.604 114.931 325.844 115.112C326.089 115.293 326.233 115.541 326.276 115.856L326.188 115.864V113.24H327.388V119H326.212ZM325.252 118.12C325.534 118.12 325.764 118.021 325.94 117.824C326.116 117.621 326.204 117.333 326.204 116.96C326.204 116.587 326.113 116.301 325.932 116.104C325.756 115.901 325.524 115.8 325.236 115.8C324.958 115.8 324.729 115.901 324.548 116.104C324.372 116.307 324.284 116.595 324.284 116.968C324.284 117.341 324.372 117.627 324.548 117.824C324.729 118.021 324.964 118.12 325.252 118.12Z" fill="black"/>
<path d="M136.072 119V114.184H134.192V113.24H139.184V114.184H137.304V119H136.072ZM139.855 119V113.24H141.055V119H139.855ZM142.695 119V116.472C142.695 116.248 142.636 116.08 142.519 115.968C142.407 115.856 142.242 115.8 142.023 115.8C141.836 115.8 141.668 115.843 141.519 115.928C141.375 116.013 141.26 116.131 141.175 116.28C141.095 116.429 141.055 116.605 141.055 116.808L140.951 115.824C141.084 115.525 141.279 115.288 141.535 115.112C141.796 114.931 142.116 114.84 142.495 114.84C142.948 114.84 143.295 114.968 143.535 115.224C143.775 115.475 143.895 115.813 143.895 116.24V119H142.695ZM145.995 119.08C145.707 119.08 145.459 119.019 145.251 118.896C145.049 118.768 144.894 118.6 144.787 118.392C144.681 118.179 144.627 117.941 144.627 117.68V114.92H145.827V117.448C145.827 117.672 145.883 117.84 145.995 117.952C146.107 118.064 146.265 118.12 146.467 118.12C146.649 118.12 146.809 118.077 146.947 117.992C147.086 117.907 147.195 117.789 147.275 117.64C147.361 117.485 147.403 117.309 147.403 117.112L147.507 118.096C147.374 118.389 147.179 118.627 146.923 118.808C146.667 118.989 146.358 119.08 145.995 119.08ZM147.427 119V118.04H147.403V114.92H148.603V119H147.427ZM149.566 119V114.92H150.742V115.88H150.766V119H149.566ZM150.766 116.872L150.662 115.904C150.758 115.557 150.915 115.293 151.134 115.112C151.353 114.931 151.625 114.84 151.95 114.84C152.051 114.84 152.126 114.851 152.174 114.872V115.992C152.147 115.981 152.11 115.976 152.062 115.976C152.014 115.971 151.955 115.968 151.886 115.968C151.502 115.968 151.219 116.037 151.038 116.176C150.857 116.309 150.766 116.541 150.766 116.872Z" fill="black"/>
<path d="M197.768 119.072C197.021 119.072 196.424 118.907 195.976 118.576C195.528 118.24 195.267 117.768 195.192 117.16H196.376C196.413 117.469 196.563 117.715 196.824 117.896C197.085 118.072 197.419 118.16 197.824 118.16C198.155 118.16 198.408 118.101 198.584 117.984C198.765 117.867 198.856 117.709 198.856 117.512C198.856 117.325 198.803 117.176 198.696 117.064C198.589 116.947 198.405 116.853 198.144 116.784L197.072 116.488C196.523 116.333 196.12 116.123 195.864 115.856C195.613 115.584 195.488 115.245 195.488 114.84C195.488 114.493 195.576 114.195 195.752 113.944C195.933 113.688 196.187 113.493 196.512 113.36C196.837 113.221 197.219 113.152 197.656 113.152C198.328 113.152 198.864 113.312 199.264 113.632C199.664 113.947 199.891 114.365 199.944 114.888H198.76C198.707 114.605 198.576 114.397 198.368 114.264C198.165 114.131 197.904 114.064 197.584 114.064C197.307 114.064 197.085 114.117 196.92 114.224C196.755 114.331 196.672 114.475 196.672 114.656C196.672 114.795 196.717 114.923 196.808 115.04C196.899 115.152 197.088 115.248 197.376 115.328L198.448 115.624C199.013 115.779 199.419 115.992 199.664 116.264C199.915 116.531 200.04 116.869 200.04 117.28C200.04 117.856 199.84 118.299 199.44 118.608C199.04 118.917 198.483 119.072 197.768 119.072ZM203.267 119C203.235 118.883 203.211 118.757 203.195 118.624C203.184 118.491 203.179 118.336 203.179 118.16H203.147V116.232C203.147 116.067 203.091 115.939 202.979 115.848C202.872 115.752 202.712 115.704 202.499 115.704C202.296 115.704 202.133 115.739 202.011 115.808C201.893 115.877 201.816 115.979 201.779 116.112H200.635C200.688 115.744 200.877 115.44 201.203 115.2C201.528 114.96 201.973 114.84 202.539 114.84C203.125 114.84 203.573 114.971 203.883 115.232C204.192 115.493 204.347 115.869 204.347 116.36V118.16C204.347 118.293 204.355 118.429 204.371 118.568C204.392 118.701 204.424 118.845 204.467 119H203.267ZM201.843 119.08C201.437 119.08 201.115 118.979 200.875 118.776C200.635 118.568 200.515 118.293 200.515 117.952C200.515 117.573 200.656 117.269 200.939 117.04C201.227 116.805 201.627 116.653 202.139 116.584L203.331 116.416V117.112L202.339 117.264C202.125 117.296 201.968 117.355 201.867 117.44C201.765 117.525 201.715 117.643 201.715 117.792C201.715 117.925 201.763 118.027 201.859 118.096C201.955 118.165 202.083 118.2 202.243 118.2C202.493 118.2 202.707 118.133 202.883 118C203.059 117.861 203.147 117.701 203.147 117.52L203.259 118.16C203.141 118.464 202.963 118.693 202.723 118.848C202.483 119.003 202.189 119.08 201.843 119.08ZM206.924 119.088C206.401 119.088 206.012 118.963 205.756 118.712C205.505 118.456 205.38 118.069 205.38 117.552V114.008L206.58 113.56V117.592C206.58 117.773 206.63 117.909 206.732 118C206.833 118.091 206.99 118.136 207.204 118.136C207.284 118.136 207.358 118.128 207.428 118.112C207.497 118.096 207.566 118.077 207.636 118.056V118.968C207.566 119.005 207.468 119.035 207.34 119.056C207.217 119.077 207.078 119.088 206.924 119.088ZM204.62 115.832V114.92H207.636V115.832H204.62Z" fill="black"/>
<path d="M225.768 119.072C225.021 119.072 224.424 118.907 223.976 118.576C223.528 118.24 223.267 117.768 223.192 117.16H224.376C224.413 117.469 224.563 117.715 224.824 117.896C225.085 118.072 225.419 118.16 225.824 118.16C226.155 118.16 226.408 118.101 226.584 117.984C226.765 117.867 226.856 117.709 226.856 117.512C226.856 117.325 226.803 117.176 226.696 117.064C226.589 116.947 226.405 116.853 226.144 116.784L225.072 116.488C224.523 116.333 224.12 116.123 223.864 115.856C223.613 115.584 223.488 115.245 223.488 114.84C223.488 114.493 223.576 114.195 223.752 113.944C223.933 113.688 224.187 113.493 224.512 113.36C224.837 113.221 225.219 113.152 225.656 113.152C226.328 113.152 226.864 113.312 227.264 113.632C227.664 113.947 227.891 114.365 227.944 114.888H226.76C226.707 114.605 226.576 114.397 226.368 114.264C226.165 114.131 225.904 114.064 225.584 114.064C225.307 114.064 225.085 114.117 224.92 114.224C224.755 114.331 224.672 114.475 224.672 114.656C224.672 114.795 224.717 114.923 224.808 115.04C224.899 115.152 225.088 115.248 225.376 115.328L226.448 115.624C227.013 115.779 227.419 115.992 227.664 116.264C227.915 116.531 228.04 116.869 228.04 117.28C228.04 117.856 227.84 118.299 227.44 118.608C227.04 118.917 226.483 119.072 225.768 119.072ZM230.003 119.08C229.715 119.08 229.467 119.019 229.259 118.896C229.056 118.768 228.902 118.6 228.795 118.392C228.688 118.179 228.635 117.941 228.635 117.68V114.92H229.835V117.448C229.835 117.672 229.891 117.84 230.003 117.952C230.115 118.064 230.272 118.12 230.475 118.12C230.656 118.12 230.816 118.077 230.955 117.992C231.094 117.907 231.203 117.789 231.283 117.64C231.368 117.485 231.411 117.309 231.411 117.112L231.515 118.096C231.382 118.389 231.187 118.627 230.931 118.808C230.675 118.989 230.366 119.08 230.003 119.08ZM231.435 119V118.04H231.411V114.92H232.611V119H231.435ZM233.574 119V114.92H234.75V115.88H234.774V119H233.574ZM236.414 119V116.472C236.414 116.248 236.355 116.08 236.238 115.968C236.126 115.856 235.96 115.8 235.742 115.8C235.555 115.8 235.387 115.843 235.238 115.928C235.094 116.013 234.979 116.131 234.894 116.28C234.814 116.429 234.774 116.605 234.774 116.808L234.67 115.824C234.803 115.525 234.998 115.288 235.254 115.112C235.515 114.931 235.835 114.84 236.214 114.84C236.667 114.84 237.014 114.968 237.254 115.224C237.494 115.475 237.614 115.813 237.614 116.24V119H236.414Z" fill="black"/>
<path d="M168.4 119V113.24H169.632V119H168.4ZM168.976 116.768V115.824H172.28V116.768H168.976ZM168.976 114.184V113.24H172.464V114.184H168.976ZM173.199 119V114.92H174.375V115.88H174.399V119H173.199ZM174.399 116.872L174.295 115.904C174.391 115.557 174.548 115.293 174.767 115.112C174.985 114.931 175.257 114.84 175.583 114.84C175.684 114.84 175.759 114.851 175.807 114.872V115.992C175.78 115.981 175.743 115.976 175.695 115.976C175.647 115.971 175.588 115.968 175.519 115.968C175.135 115.968 174.852 116.037 174.671 116.176C174.489 116.309 174.399 116.541 174.399 116.872ZM176.324 119V114.92H177.524V119H176.324ZM176.284 114.376V113.08H177.564V114.376H176.284Z" fill="black"/>
</g>
<defs>
<filter id="filter0_d_33_416" x="0" y="0" width="375" height="135" filterUnits="userSpaceOnUse" color-interpolation-filters="sRGB">
<feFlood flood-opacity="0" result="BackgroundImageFix"/>
<feColorMatrix in="SourceAlpha" type="matrix" values="0 0 0 0 0 0 0 0 0 0 0 0 0 0 0 0 0 0 127 0" result="hardAlpha"/>
<feOffset dx="5" dy="5"/>
<feComposite in2="hardAlpha" operator="out"/>
<feColorMatrix type="matrix" values="0 0 0 0 0 0 0 0 0 0 0 0 0 0 0 0 0 0 1 0"/>
<feBlend mode="normal" in2="BackgroundImageFix" result="effect1_dropShadow_33_416"/>
<feBlend mode="normal" in="SourceGraphic" in2="effect1_dropShadow_33_416" result="shape"/>
</filter>
</defs>
</svg>
