<svg width="25" height="29" viewBox="0 0 25 29" fill="none" xmlns="http://www.w3.org/2000/svg">
<path d="M12.18 19.88C12.18 19.7067 12.1467 19.62 12.08 19.62L11.62 19.84C11.62 19.7467 11.5667 19.68 11.46 19.64L11.3 19.62C11.1933 19.62 11.06 19.6667 10.9 19.76C10.8733 19.6933 10.84 19.6267 10.8 19.56C10.76 19.4933 10.7267 19.4333 10.7 19.38C10.5267 19.0467 10.3533 18.68 10.18 18.28C10.02 17.8667 9.86667 17.4733 9.72 17.1C9.58667 16.7267 9.48 16.4333 9.4 16.22C9.34667 16.0467 9.28667 15.7867 9.22 15.44C9.15333 15.0933 9.08667 14.6533 9.02 14.12C9.16667 14.2133 9.28 14.26 9.36 14.26C9.45333 14.26 9.54 14.12 9.62 13.84C9.66 13.8933 9.73333 13.92 9.84 13.92C9.92 13.92 9.98 13.8933 10.02 13.84L10.34 13.36L10.7 13.48H10.72C10.7467 13.48 10.7733 13.4667 10.8 13.44C10.8267 13.4133 10.8667 13.3867 10.92 13.36C11.0267 13.2933 11.1067 13.26 11.16 13.26L11.22 13.28C11.5533 13.44 11.7667 13.7333 11.86 14.16C12.1 15.1733 12.34 15.68 12.58 15.68C12.82 15.68 13.1 15.4267 13.42 14.92C13.58 14.6667 13.74 14.3733 13.9 14.04C14.0733 13.7067 14.2467 13.3333 14.42 12.92C14.4467 13.08 14.4733 13.16 14.5 13.16C14.5667 13.16 14.68 12.9933 14.84 12.66C15.0133 12.3267 15.2867 11.8667 15.66 11.28C15.8733 10.92 16.14 10.5133 16.46 10.06C16.7933 9.60667 17.1467 9.14 17.52 8.66C17.8933 8.18 18.2533 7.72667 18.6 7.3C18.96 6.87333 19.28 6.50667 19.56 6.2C19.84 5.89333 20.0467 5.69333 20.18 5.6C20.6867 5.25333 21.0867 4.92 21.38 4.6C21.3667 4.69333 21.3467 4.78 21.32 4.86C21.3067 4.92667 21.3 4.97333 21.3 5C21.3 5.05333 21.3267 5.08 21.38 5.08L21.94 4.8V4.88C21.94 4.98667 21.9667 5.04 22.02 5.04C22.06 5.04 22.14 4.98 22.26 4.86C22.38 4.74 22.4467 4.65333 22.46 4.6L22.42 4.88L23.1 4.48L22.94 4.84C23.1533 4.69333 23.3067 4.62 23.4 4.62C23.4533 4.62 23.4933 4.65333 23.52 4.72C23.5467 4.77333 23.56 4.82667 23.56 4.88C23.56 4.96 23.5267 5.05333 23.46 5.16C23.3933 5.26667 23.3067 5.39333 23.2 5.54C23.12 5.64667 22.9867 5.80667 22.8 6.02C22.6267 6.22 22.36 6.52 22 6.92C21.64 7.30667 21.16 7.84667 20.56 8.54C20.4 8.71333 20.1533 9.02 19.82 9.46C19.4867 9.88667 19.1067 10.3867 18.68 10.96C18.2667 11.52 17.8533 12.0867 17.44 12.66C17.0267 13.2333 16.66 13.7533 16.34 14.22C16.02 14.6733 15.7933 15.0133 15.66 15.24L14.42 17.34C14.1533 17.7933 13.9333 18.1667 13.76 18.46C13.5867 18.74 13.4533 18.9333 13.36 19.04C13.16 19.28 12.94 19.4933 12.7 19.68L12.52 19.58L12.36 19.68L12.18 19.88Z" fill="white" fill-opacity="0.5"/>
<mask id="path-2-inside-1_235_732" fill="white">
<path d="M23.253 11.5133C23.5772 11.363 23.9635 11.5034 24.0968 11.8348C25.0537 14.2133 25.2579 16.8342 24.6729 19.341C24.0387 22.0583 22.5136 24.4853 20.3404 26.2354C18.1672 27.9856 15.4709 28.9583 12.6809 28.9987C9.89092 29.0391 7.16762 28.1448 4.9447 26.4583C2.72178 24.7718 1.12705 22.39 0.414477 19.6922C-0.298097 16.9944 -0.0875451 14.1358 1.0126 11.5715C2.11275 9.00728 4.03924 6.88485 6.48527 5.54222C8.74185 4.30358 11.3209 3.79434 13.8692 4.07521C14.2244 4.11435 14.4636 4.44858 14.4062 4.80123V4.80123C14.3487 5.15388 14.0163 5.39121 13.6609 5.35419C11.3981 5.11846 9.11121 5.57685 7.10787 6.67648C4.91503 7.88013 3.18796 9.78287 2.20169 12.0817C1.21542 14.3805 1.02666 16.9432 1.66548 19.3618C2.30429 21.7803 3.73394 23.9155 5.72677 25.4275C7.71959 26.9394 10.161 27.7411 12.6622 27.7049C15.1634 27.6687 17.5806 26.7967 19.5288 25.2277C21.477 23.6587 22.8443 21.483 23.4128 19.047C23.9322 16.8215 23.7577 14.4957 22.9212 12.3799C22.7899 12.0477 22.9289 11.6636 23.253 11.5133V11.5133Z"/>
</mask>
<path d="M23.253 11.5133C23.5772 11.363 23.9635 11.5034 24.0968 11.8348C25.0537 14.2133 25.2579 16.8342 24.6729 19.341C24.0387 22.0583 22.5136 24.4853 20.3404 26.2354C18.1672 27.9856 15.4709 28.9583 12.6809 28.9987C9.89092 29.0391 7.16762 28.1448 4.9447 26.4583C2.72178 24.7718 1.12705 22.39 0.414477 19.6922C-0.298097 16.9944 -0.0875451 14.1358 1.0126 11.5715C2.11275 9.00728 4.03924 6.88485 6.48527 5.54222C8.74185 4.30358 11.3209 3.79434 13.8692 4.07521C14.2244 4.11435 14.4636 4.44858 14.4062 4.80123V4.80123C14.3487 5.15388 14.0163 5.39121 13.6609 5.35419C11.3981 5.11846 9.11121 5.57685 7.10787 6.67648C4.91503 7.88013 3.18796 9.78287 2.20169 12.0817C1.21542 14.3805 1.02666 16.9432 1.66548 19.3618C2.30429 21.7803 3.73394 23.9155 5.72677 25.4275C7.71959 26.9394 10.161 27.7411 12.6622 27.7049C15.1634 27.6687 17.5806 26.7967 19.5288 25.2277C21.477 23.6587 22.8443 21.483 23.4128 19.047C23.9322 16.8215 23.7577 14.4957 22.9212 12.3799C22.7899 12.0477 22.9289 11.6636 23.253 11.5133V11.5133Z" stroke="white" stroke-opacity="0.5" stroke-width="6" mask="url(#path-2-inside-1_235_732)"/>
</svg>
