<svg width="353" height="208" viewBox="0 0 353 208" fill="none" xmlns="http://www.w3.org/2000/svg">
<g filter="url(#filter0_d_33_173)">
<g clip-path="url(#clip0_33_173)">
<rect width="348" height="203" rx="30" fill="white"/>
<path d="M215.646 152.281C217.993 156.221 232.464 151.272 240.817 151.272C246.162 151.272 248.896 148.454 252.553 155.499C256.211 162.545 310.614 142.291 322.803 145.923C347.774 153.364 436.683 128.726 436.683 128.726C436.683 128.726 518.84 86.4516 403.273 15.1185C403.273 -80.4 458.427 -66.6838 334.843 -66.6838C292.632 -66.6838 264.408 -97.4866 230.717 -81.7848C216.542 -88.4549 201.03 -120 184.962 -120C114.127 -120 98.6657 25.8587 138.571 47.5469C231.427 114.634 137.781 133.484 196.465 150.393C196.465 150.393 214.236 149.914 215.646 152.281Z" fill="#9A94FF"/>
<path d="M384.132 195.241C386.219 194.384 386.965 194.862 386.965 191.814C386.965 189.863 385.472 188.866 389.205 187.531C392.938 186.196 382.208 166.342 384.132 161.894C388.074 152.781 375.021 120.334 375.021 120.334C375.021 120.334 352.626 90.3514 314.836 132.527C264.234 132.527 253.753 124.274 253.753 169.375C253.753 184.779 211.773 162.34 220.091 174.635C216.557 179.808 243.255 206.334 243.255 212.198C243.255 238.048 320.526 243.691 332.016 229.128C367.556 195.241 373.528 220.083 382.486 198.667C382.486 198.667 382.878 195.755 384.132 195.241Z" fill="#FF5E74"/>
<path d="M166.313 61.2271C169.047 60.3907 170.025 60.8576 170.025 57.8815C170.025 55.9769 168.069 55.0027 172.959 53.6994C177.848 52.3961 163.793 33.0111 166.313 28.668C171.477 19.7701 154.379 -11.9101 154.379 -11.9101C154.379 -11.9101 125.042 -41.1844 75.5396 -0.00519753C9.25337 -0.00519753 -4.47503 -8.06349 -4.47503 35.9722C-4.47503 51.0128 -59.4674 29.1033 -48.5709 41.1084C-53.1998 46.159 -18.2275 72.0582 -18.2275 77.7837C-18.2275 103.024 82.9929 108.533 98.0437 94.3139C144.6 61.2271 152.423 85.483 164.158 64.5727C164.158 64.5727 164.671 61.7295 166.313 61.2271Z" fill="#270722"/>
<g filter="url(#filter1_d_33_173)">
<ellipse cx="296" cy="173.5" rx="17" ry="16.5" fill="#270722"/>
</g>
<ellipse cx="313" cy="173.5" rx="17" ry="16.5" fill="#270722" fill-opacity="0.7"/>
<path opacity="0.7" d="M19.7 181V169.24L20.04 169.54C19.84 169.953 19.5533 170.34 19.18 170.7C18.8067 171.047 18.3667 171.347 17.86 171.6C17.3667 171.84 16.8133 172.02 16.2 172.14V169.14C16.6933 169.073 17.2067 168.913 17.74 168.66C18.2733 168.393 18.7533 168.08 19.18 167.72C19.62 167.347 19.9333 166.973 20.12 166.6H22.7V181H19.7ZM24.2344 181V178.6C25.5544 177.52 26.6544 176.593 27.5344 175.82C28.4277 175.033 29.1344 174.34 29.6544 173.74C30.1877 173.14 30.5677 172.593 30.7944 172.1C31.021 171.607 31.1344 171.113 31.1344 170.62C31.1344 170.033 30.9744 169.58 30.6544 169.26C30.3477 168.927 29.9144 168.76 29.3544 168.76C28.7677 168.76 28.281 168.94 27.8944 169.3C27.5077 169.66 27.2677 170.153 27.1744 170.78H24.0944C24.241 169.42 24.7944 168.353 25.7544 167.58C26.7144 166.793 27.9544 166.4 29.4744 166.4C31.021 166.4 32.2277 166.8 33.0944 167.6C33.961 168.387 34.3944 169.487 34.3944 170.9C34.3944 171.567 34.281 172.207 34.0544 172.82C33.841 173.433 33.481 174.067 32.9744 174.72C32.4677 175.373 31.7744 176.093 30.8944 176.88C30.0277 177.653 28.941 178.54 27.6344 179.54L26.8944 178.64H34.6744V181H24.2344ZM40.9639 181.2C39.9506 181.2 39.0372 181.02 38.2239 180.66C37.4239 180.287 36.7706 179.747 36.2639 179.04C35.7706 178.32 35.4839 177.447 35.4039 176.42H38.4639C38.5706 177.247 38.8239 177.86 39.2239 178.26C39.6239 178.647 40.1639 178.84 40.8439 178.84C41.4306 178.84 41.9172 178.667 42.3039 178.32C42.7039 177.973 42.9039 177.467 42.9039 176.8C42.9039 176.16 42.7106 175.647 42.3239 175.26C41.9506 174.86 41.3106 174.66 40.4039 174.66H39.1239V172.34H40.3439C41.1306 172.34 41.6972 172.167 42.0439 171.82C42.3906 171.473 42.5639 171.033 42.5639 170.5C42.5639 169.993 42.4306 169.58 42.1639 169.26C41.8972 168.927 41.4439 168.76 40.8039 168.76C40.2572 168.76 39.7839 168.927 39.3839 169.26C38.9839 169.593 38.7372 170.1 38.6439 170.78H35.5639C35.6839 169.873 35.9706 169.093 36.4239 168.44C36.8772 167.787 37.4839 167.287 38.2439 166.94C39.0039 166.58 39.8906 166.4 40.9039 166.4C41.9172 166.4 42.7839 166.56 43.5039 166.88C44.2372 167.187 44.8039 167.627 45.2039 168.2C45.6039 168.773 45.8039 169.46 45.8039 170.26C45.8039 170.927 45.6506 171.513 45.3439 172.02C45.0372 172.527 44.6506 172.92 44.1839 173.2C43.7306 173.48 43.2706 173.62 42.8039 173.62L42.7839 173.2C43.4906 173.2 44.0972 173.373 44.6039 173.72C45.1106 174.053 45.4972 174.507 45.7639 175.08C46.0306 175.64 46.1639 176.267 46.1639 176.96C46.1639 177.827 45.9372 178.58 45.4839 179.22C45.0306 179.86 44.4106 180.353 43.6239 180.7C42.8372 181.033 41.9506 181.2 40.9639 181.2ZM54.1636 181V177.2L54.3236 176.8V168.58L55.5436 169.24L49.7036 176.98L48.2836 175.92H58.7236V178.28H47.1636V175.92L54.2436 166.6H57.2836V181H54.1636ZM66.6336 181V169.24L66.9736 169.54C66.7736 169.953 66.4869 170.34 66.1136 170.7C65.7403 171.047 65.3003 171.347 64.7936 171.6C64.3003 171.84 63.7469 172.02 63.1336 172.14V169.14C63.6269 169.073 64.1403 168.913 64.6736 168.66C65.2069 168.393 65.6869 168.08 66.1136 167.72C66.5536 167.347 66.8669 166.973 67.0536 166.6H69.6336V181H66.6336ZM71.168 181V178.6C72.488 177.52 73.588 176.593 74.468 175.82C75.3613 175.033 76.068 174.34 76.588 173.74C77.1213 173.14 77.5013 172.593 77.728 172.1C77.9546 171.607 78.068 171.113 78.068 170.62C78.068 170.033 77.908 169.58 77.588 169.26C77.2813 168.927 76.848 168.76 76.288 168.76C75.7013 168.76 75.2146 168.94 74.828 169.3C74.4413 169.66 74.2013 170.153 74.108 170.78H71.028C71.1746 169.42 71.728 168.353 72.688 167.58C73.648 166.793 74.888 166.4 76.408 166.4C77.9546 166.4 79.1613 166.8 80.028 167.6C80.8946 168.387 81.328 169.487 81.328 170.9C81.328 171.567 81.2146 172.207 80.988 172.82C80.7746 173.433 80.4146 174.067 79.908 174.72C79.4013 175.373 78.708 176.093 77.828 176.88C76.9613 177.653 75.8746 178.54 74.568 179.54L73.828 178.64H81.608V181H71.168ZM87.8975 181.2C86.8842 181.2 85.9708 181.02 85.1575 180.66C84.3575 180.287 83.7042 179.747 83.1975 179.04C82.7042 178.32 82.4175 177.447 82.3375 176.42H85.3975C85.5042 177.247 85.7575 177.86 86.1575 178.26C86.5575 178.647 87.0975 178.84 87.7775 178.84C88.3642 178.84 88.8508 178.667 89.2375 178.32C89.6375 177.973 89.8375 177.467 89.8375 176.8C89.8375 176.16 89.6442 175.647 89.2575 175.26C88.8842 174.86 88.2442 174.66 87.3375 174.66H86.0575V172.34H87.2775C88.0642 172.34 88.6308 172.167 88.9775 171.82C89.3242 171.473 89.4975 171.033 89.4975 170.5C89.4975 169.993 89.3642 169.58 89.0975 169.26C88.8308 168.927 88.3775 168.76 87.7375 168.76C87.1908 168.76 86.7175 168.927 86.3175 169.26C85.9175 169.593 85.6708 170.1 85.5775 170.78H82.4975C82.6175 169.873 82.9042 169.093 83.3575 168.44C83.8108 167.787 84.4175 167.287 85.1775 166.94C85.9375 166.58 86.8242 166.4 87.8375 166.4C88.8508 166.4 89.7175 166.56 90.4375 166.88C91.1708 167.187 91.7375 167.627 92.1375 168.2C92.5375 168.773 92.7375 169.46 92.7375 170.26C92.7375 170.927 92.5842 171.513 92.2775 172.02C91.9708 172.527 91.5842 172.92 91.1175 173.2C90.6642 173.48 90.2042 173.62 89.7375 173.62L89.7175 173.2C90.4242 173.2 91.0308 173.373 91.5375 173.72C92.0442 174.053 92.4308 174.507 92.6975 175.08C92.9642 175.64 93.0975 176.267 93.0975 176.96C93.0975 177.827 92.8708 178.58 92.4175 179.22C91.9642 179.86 91.3442 180.353 90.5575 180.7C89.7708 181.033 88.8842 181.2 87.8975 181.2ZM101.097 181V177.2L101.257 176.8V168.58L102.477 169.24L96.6372 176.98L95.2172 175.92H105.657V178.28H94.0972V175.92L101.177 166.6H104.217V181H101.097ZM113.567 181V169.24L113.907 169.54C113.707 169.953 113.421 170.34 113.047 170.7C112.674 171.047 112.234 171.347 111.727 171.6C111.234 171.84 110.681 172.02 110.067 172.14V169.14C110.561 169.073 111.074 168.913 111.607 168.66C112.141 168.393 112.621 168.08 113.047 167.72C113.487 167.347 113.801 166.973 113.987 166.6H116.567V181H113.567ZM118.102 181V178.6C119.422 177.52 120.522 176.593 121.402 175.82C122.295 175.033 123.002 174.34 123.522 173.74C124.055 173.14 124.435 172.593 124.662 172.1C124.888 171.607 125.002 171.113 125.002 170.62C125.002 170.033 124.842 169.58 124.522 169.26C124.215 168.927 123.782 168.76 123.222 168.76C122.635 168.76 122.148 168.94 121.762 169.3C121.375 169.66 121.135 170.153 121.042 170.78H117.962C118.108 169.42 118.662 168.353 119.622 167.58C120.582 166.793 121.822 166.4 123.342 166.4C124.888 166.4 126.095 166.8 126.962 167.6C127.828 168.387 128.262 169.487 128.262 170.9C128.262 171.567 128.148 172.207 127.922 172.82C127.708 173.433 127.348 174.067 126.842 174.72C126.335 175.373 125.642 176.093 124.762 176.88C123.895 177.653 122.808 178.54 121.502 179.54L120.762 178.64H128.542V181H118.102ZM134.831 181.2C133.818 181.2 132.904 181.02 132.091 180.66C131.291 180.287 130.638 179.747 130.131 179.04C129.638 178.32 129.351 177.447 129.271 176.42H132.331C132.438 177.247 132.691 177.86 133.091 178.26C133.491 178.647 134.031 178.84 134.711 178.84C135.298 178.84 135.784 178.667 136.171 178.32C136.571 177.973 136.771 177.467 136.771 176.8C136.771 176.16 136.578 175.647 136.191 175.26C135.818 174.86 135.178 174.66 134.271 174.66H132.991V172.34H134.211C134.998 172.34 135.564 172.167 135.911 171.82C136.258 171.473 136.431 171.033 136.431 170.5C136.431 169.993 136.298 169.58 136.031 169.26C135.764 168.927 135.311 168.76 134.671 168.76C134.124 168.76 133.651 168.927 133.251 169.26C132.851 169.593 132.604 170.1 132.511 170.78H129.431C129.551 169.873 129.838 169.093 130.291 168.44C130.744 167.787 131.351 167.287 132.111 166.94C132.871 166.58 133.758 166.4 134.771 166.4C135.784 166.4 136.651 166.56 137.371 166.88C138.104 167.187 138.671 167.627 139.071 168.2C139.471 168.773 139.671 169.46 139.671 170.26C139.671 170.927 139.518 171.513 139.211 172.02C138.904 172.527 138.518 172.92 138.051 173.2C137.598 173.48 137.138 173.62 136.671 173.62L136.651 173.2C137.358 173.2 137.964 173.373 138.471 173.72C138.978 174.053 139.364 174.507 139.631 175.08C139.898 175.64 140.031 176.267 140.031 176.96C140.031 177.827 139.804 178.58 139.351 179.22C138.898 179.86 138.278 180.353 137.491 180.7C136.704 181.033 135.818 181.2 134.831 181.2ZM148.031 181V177.2L148.191 176.8V168.58L149.411 169.24L143.571 176.98L142.151 175.92H152.591V178.28H141.031V175.92L148.111 166.6H151.151V181H148.031ZM159.941 172.86L160.501 170.74L158.881 172.28L157.601 170.12L159.781 169.52L157.601 168.94L158.881 166.78L160.501 168.32L159.941 166.2H162.501L161.941 168.32L163.561 166.78L164.821 168.94L162.661 169.52L164.821 170.12L163.561 172.28L161.941 170.74L162.501 172.86H159.941ZM168.281 172.86L168.841 170.74L167.221 172.28L165.941 170.12L168.121 169.52L165.941 168.94L167.221 166.78L168.841 168.32L168.281 166.2H170.841L170.281 168.32L171.901 166.78L173.161 168.94L171.001 169.52L173.161 170.12L171.901 172.28L170.281 170.74L170.841 172.86H168.281ZM176.62 172.86L177.18 170.74L175.56 172.28L174.28 170.12L176.46 169.52L174.28 168.94L175.56 166.78L177.18 168.32L176.62 166.2H179.18L178.62 168.32L180.24 166.78L181.5 168.94L179.34 169.52L181.5 170.12L180.24 172.28L178.62 170.74L179.18 172.86H176.62ZM184.96 172.86L185.52 170.74L183.9 172.28L182.62 170.12L184.8 169.52L182.62 168.94L183.9 166.78L185.52 168.32L184.96 166.2H187.52L186.96 168.32L188.58 166.78L189.84 168.94L187.68 169.52L189.84 170.12L188.58 172.28L186.96 170.74L187.52 172.86H184.96Z" fill="black"/>
<g opacity="0.7" filter="url(#filter2_d_33_173)">
<path d="M17.5 57V35.4H22.12V57H17.5ZM20.65 45.78L30.37 35.4H36.52L26.26 45.78H20.65ZM30.85 57L20.59 45.78H26.26L37.12 57H30.85ZM47.9085 57C47.7885 56.56 47.6985 56.09 47.6385 55.59C47.5985 55.09 47.5785 54.51 47.5785 53.85H47.4585V46.62C47.4585 46 47.2485 45.52 46.8285 45.18C46.4285 44.82 45.8285 44.64 45.0285 44.64C44.2685 44.64 43.6585 44.77 43.1985 45.03C42.7585 45.29 42.4685 45.67 42.3285 46.17H38.0385C38.2385 44.79 38.9485 43.65 40.1685 42.75C41.3885 41.85 43.0585 41.4 45.1785 41.4C47.3785 41.4 49.0585 41.89 50.2185 42.87C51.3785 43.85 51.9585 45.26 51.9585 47.1V53.85C51.9585 54.35 51.9885 54.86 52.0485 55.38C52.1285 55.88 52.2485 56.42 52.4085 57H47.9085ZM42.5685 57.3C41.0485 57.3 39.8385 56.92 38.9385 56.16C38.0385 55.38 37.5885 54.35 37.5885 53.07C37.5885 51.65 38.1185 50.51 39.1785 49.65C40.2585 48.77 41.7585 48.2 43.6785 47.94L48.1485 47.31V49.92L44.4285 50.49C43.6285 50.61 43.0385 50.83 42.6585 51.15C42.2785 51.47 42.0885 51.91 42.0885 52.47C42.0885 52.97 42.2685 53.35 42.6285 53.61C42.9885 53.87 43.4685 54 44.0685 54C45.0085 54 45.8085 53.75 46.4685 53.25C47.1285 52.73 47.4585 52.13 47.4585 51.45L47.8785 53.85C47.4385 54.99 46.7685 55.85 45.8685 56.43C44.9685 57.01 43.8685 57.3 42.5685 57.3ZM55.4172 57V41.7H59.8272V45.3H59.9172V57H55.4172ZM66.0672 57V47.52C66.0672 46.68 65.8472 46.05 65.4072 45.63C64.9872 45.21 64.3672 45 63.5472 45C62.8472 45 62.2172 45.16 61.6572 45.48C61.1172 45.8 60.6872 46.24 60.3672 46.8C60.0672 47.36 59.9172 48.02 59.9172 48.78L59.5272 45.09C60.0272 43.97 60.7572 43.08 61.7172 42.42C62.6972 41.74 63.8972 41.4 65.3172 41.4C67.0172 41.4 68.3172 41.88 69.2172 42.84C70.1172 43.78 70.5672 45.05 70.5672 46.65V57H66.0672ZM81.1914 57.3C79.4914 57.3 78.0114 56.97 76.7514 56.31C75.4914 55.63 74.5114 54.69 73.8114 53.49C73.1314 52.29 72.7914 50.91 72.7914 49.35C72.7914 47.77 73.1314 46.39 73.8114 45.21C74.5114 44.01 75.4814 43.08 76.7214 42.42C77.9614 41.74 79.4014 41.4 81.0414 41.4C82.6214 41.4 83.9914 41.72 85.1514 42.36C86.3114 43 87.2114 43.89 87.8514 45.03C88.4914 46.17 88.8114 47.51 88.8114 49.05C88.8114 49.37 88.8014 49.67 88.7814 49.95C88.7614 50.21 88.7314 50.46 88.6914 50.7H75.4314V47.73H85.0614L84.2814 48.27C84.2814 47.03 83.9814 46.12 83.3814 45.54C82.8014 44.94 82.0014 44.64 80.9814 44.64C79.8014 44.64 78.8814 45.04 78.2214 45.84C77.5814 46.64 77.2614 47.84 77.2614 49.44C77.2614 51 77.5814 52.16 78.2214 52.92C78.8814 53.68 79.8614 54.06 81.1614 54.06C81.8814 54.06 82.5014 53.94 83.0214 53.7C83.5414 53.46 83.9314 53.07 84.1914 52.53H88.4214C87.9214 54.01 87.0614 55.18 85.8414 56.04C84.6414 56.88 83.0914 57.3 81.1914 57.3ZM96.6309 57V35.4H103.831L109.831 56.22H107.221L113.221 35.4H120.451V57H115.891V36.69H116.671L110.821 57H106.051L100.261 36.87H101.011V57H96.6309ZM133.368 57C133.248 56.56 133.158 56.09 133.098 55.59C133.058 55.09 133.038 54.51 133.038 53.85H132.918V46.62C132.918 46 132.708 45.52 132.288 45.18C131.888 44.82 131.288 44.64 130.488 44.64C129.728 44.64 129.118 44.77 128.658 45.03C128.218 45.29 127.928 45.67 127.788 46.17H123.498C123.698 44.79 124.408 43.65 125.628 42.75C126.848 41.85 128.518 41.4 130.638 41.4C132.838 41.4 134.518 41.89 135.678 42.87C136.838 43.85 137.418 45.26 137.418 47.1V53.85C137.418 54.35 137.448 54.86 137.508 55.38C137.588 55.88 137.708 56.42 137.868 57H133.368ZM128.028 57.3C126.508 57.3 125.298 56.92 124.398 56.16C123.498 55.38 123.048 54.35 123.048 53.07C123.048 51.65 123.578 50.51 124.638 49.65C125.718 48.77 127.218 48.2 129.138 47.94L133.608 47.31V49.92L129.888 50.49C129.088 50.61 128.498 50.83 128.118 51.15C127.738 51.47 127.548 51.91 127.548 52.47C127.548 52.97 127.728 53.35 128.088 53.61C128.448 53.87 128.928 54 129.528 54C130.468 54 131.268 53.75 131.928 53.25C132.588 52.73 132.918 52.13 132.918 51.45L133.338 53.85C132.898 54.99 132.228 55.85 131.328 56.43C130.428 57.01 129.328 57.3 128.028 57.3ZM147.081 57.33C145.121 57.33 143.661 56.86 142.701 55.92C141.761 54.96 141.291 53.51 141.291 51.57V38.28L145.791 36.6V51.72C145.791 52.4 145.981 52.91 146.361 53.25C146.741 53.59 147.331 53.76 148.131 53.76C148.431 53.76 148.711 53.73 148.971 53.67C149.231 53.61 149.491 53.54 149.751 53.46V56.88C149.491 57.02 149.121 57.13 148.641 57.21C148.181 57.29 147.661 57.33 147.081 57.33ZM138.441 45.12V41.7H149.751V45.12H138.441Z" fill="white"/>
</g>
</g>
</g>
<defs>
<filter id="filter0_d_33_173" x="0" y="0" width="353" height="208" filterUnits="userSpaceOnUse" color-interpolation-filters="sRGB">
<feFlood flood-opacity="0" result="BackgroundImageFix"/>
<feColorMatrix in="SourceAlpha" type="matrix" values="0 0 0 0 0 0 0 0 0 0 0 0 0 0 0 0 0 0 127 0" result="hardAlpha"/>
<feOffset dx="5" dy="5"/>
<feComposite in2="hardAlpha" operator="out"/>
<feColorMatrix type="matrix" values="0 0 0 0 0 0 0 0 0 0 0 0 0 0 0 0 0 0 1 0"/>
<feBlend mode="normal" in2="BackgroundImageFix" result="effect1_dropShadow_33_173"/>
<feBlend mode="normal" in="SourceGraphic" in2="effect1_dropShadow_33_173" result="shape"/>
</filter>
<filter id="filter1_d_33_173" x="275" y="153" width="42" height="41" filterUnits="userSpaceOnUse" color-interpolation-filters="sRGB">
<feFlood flood-opacity="0" result="BackgroundImageFix"/>
<feColorMatrix in="SourceAlpha" type="matrix" values="0 0 0 0 0 0 0 0 0 0 0 0 0 0 0 0 0 0 127 0" result="hardAlpha"/>
<feOffset/>
<feGaussianBlur stdDeviation="2"/>
<feComposite in2="hardAlpha" operator="out"/>
<feColorMatrix type="matrix" values="0 0 0 0 0 0 0 0 0 0 0 0 0 0 0 0 0 0 0.25 0"/>
<feBlend mode="normal" in2="BackgroundImageFix" result="effect1_dropShadow_33_173"/>
<feBlend mode="normal" in="SourceGraphic" in2="effect1_dropShadow_33_173" result="shape"/>
</filter>
<filter id="filter2_d_33_173" x="17.5" y="35.4" width="134.251" height="23.93" filterUnits="userSpaceOnUse" color-interpolation-filters="sRGB">
<feFlood flood-opacity="0" result="BackgroundImageFix"/>
<feColorMatrix in="SourceAlpha" type="matrix" values="0 0 0 0 0 0 0 0 0 0 0 0 0 0 0 0 0 0 127 0" result="hardAlpha"/>
<feOffset dx="2" dy="2"/>
<feComposite in2="hardAlpha" operator="out"/>
<feColorMatrix type="matrix" values="0 0 0 0 0 0 0 0 0 0 0 0 0 0 0 0 0 0 1 0"/>
<feBlend mode="normal" in2="BackgroundImageFix" result="effect1_dropShadow_33_173"/>
<feBlend mode="normal" in="SourceGraphic" in2="effect1_dropShadow_33_173" result="shape"/>
</filter>
<clipPath id="clip0_33_173">
<rect width="348" height="203" rx="30" fill="white"/>
</clipPath>
</defs>
</svg>
