<svg width="155" height="100" viewBox="0 0 155 100" fill="none" xmlns="http://www.w3.org/2000/svg">
<g clip-path="url(#clip0_47_578)">
<rect width="155" height="100" rx="25" fill="#FF5E74"/>
<path opacity="0.7" d="M16.775 87V78.18L17.03 78.405C16.88 78.715 16.665 79.005 16.385 79.275C16.105 79.535 15.775 79.76 15.395 79.95C15.025 80.13 14.61 80.265 14.15 80.355V78.105C14.52 78.055 14.905 77.935 15.305 77.745C15.705 77.545 16.065 77.31 16.385 77.04C16.715 76.76 16.95 76.48 17.09 76.2H19.025V87H16.775ZM20.1758 87V85.2C21.1658 84.39 21.9908 83.695 22.6508 83.115C23.3208 82.525 23.8508 82.005 24.2408 81.555C24.6408 81.105 24.9258 80.695 25.0958 80.325C25.2658 79.955 25.3508 79.585 25.3508 79.215C25.3508 78.775 25.2308 78.435 24.9908 78.195C24.7608 77.945 24.4358 77.82 24.0158 77.82C23.5758 77.82 23.2108 77.955 22.9208 78.225C22.6308 78.495 22.4508 78.865 22.3808 79.335H20.0708C20.1808 78.315 20.5958 77.515 21.3158 76.935C22.0358 76.345 22.9658 76.05 24.1058 76.05C25.2658 76.05 26.1708 76.35 26.8208 76.95C27.4708 77.54 27.7958 78.365 27.7958 79.425C27.7958 79.925 27.7108 80.405 27.5408 80.865C27.3808 81.325 27.1108 81.8 26.7308 82.29C26.3508 82.78 25.8308 83.32 25.1708 83.91C24.5208 84.49 23.7058 85.155 22.7258 85.905L22.1708 85.23H28.0058V87H20.1758ZM32.7229 87.15C31.9629 87.15 31.2779 87.015 30.6679 86.745C30.0679 86.465 29.5779 86.06 29.1979 85.53C28.8279 84.99 28.6129 84.335 28.5529 83.565H30.8479C30.9279 84.185 31.1179 84.645 31.4179 84.945C31.7179 85.235 32.1229 85.38 32.6329 85.38C33.0729 85.38 33.4379 85.25 33.7279 84.99C34.0279 84.73 34.1779 84.35 34.1779 83.85C34.1779 83.37 34.0329 82.985 33.7429 82.695C33.4629 82.395 32.9829 82.245 32.3029 82.245H31.3429V80.505H32.2579C32.8479 80.505 33.2729 80.375 33.5329 80.115C33.7929 79.855 33.9229 79.525 33.9229 79.125C33.9229 78.745 33.8229 78.435 33.6229 78.195C33.4229 77.945 33.0829 77.82 32.6029 77.82C32.1929 77.82 31.8379 77.945 31.5379 78.195C31.2379 78.445 31.0529 78.825 30.9829 79.335H28.6729C28.7629 78.655 28.9779 78.07 29.3179 77.58C29.6579 77.09 30.1129 76.715 30.6829 76.455C31.2529 76.185 31.9179 76.05 32.6779 76.05C33.4379 76.05 34.0879 76.17 34.6279 76.41C35.1779 76.64 35.6029 76.97 35.9029 77.4C36.2029 77.83 36.3529 78.345 36.3529 78.945C36.3529 79.445 36.2379 79.885 36.0079 80.265C35.7779 80.645 35.4879 80.94 35.1379 81.15C34.7979 81.36 34.4529 81.465 34.1029 81.465L34.0879 81.15C34.6179 81.15 35.0729 81.28 35.4529 81.54C35.8329 81.79 36.1229 82.13 36.3229 82.56C36.5229 82.98 36.6229 83.45 36.6229 83.97C36.6229 84.62 36.4529 85.185 36.1129 85.665C35.7729 86.145 35.3079 86.515 34.7179 86.775C34.1279 87.025 33.4629 87.15 32.7229 87.15ZM42.6227 87V84.15L42.7427 83.85V77.685L43.6577 78.18L39.2777 83.985L38.2127 83.19H46.0427V84.96H37.3727V83.19L42.6827 76.2H44.9627V87H42.6227ZM51.9752 87V78.18L52.2302 78.405C52.0802 78.715 51.8652 79.005 51.5852 79.275C51.3052 79.535 50.9752 79.76 50.5952 79.95C50.2252 80.13 49.8102 80.265 49.3502 80.355V78.105C49.7202 78.055 50.1052 77.935 50.5052 77.745C50.9052 77.545 51.2652 77.31 51.5852 77.04C51.9152 76.76 52.1502 76.48 52.2902 76.2H54.2252V87H51.9752ZM55.376 87V85.2C56.366 84.39 57.191 83.695 57.851 83.115C58.521 82.525 59.051 82.005 59.441 81.555C59.841 81.105 60.126 80.695 60.296 80.325C60.466 79.955 60.551 79.585 60.551 79.215C60.551 78.775 60.431 78.435 60.191 78.195C59.961 77.945 59.636 77.82 59.216 77.82C58.776 77.82 58.411 77.955 58.121 78.225C57.831 78.495 57.651 78.865 57.581 79.335H55.271C55.381 78.315 55.796 77.515 56.516 76.935C57.236 76.345 58.166 76.05 59.306 76.05C60.466 76.05 61.371 76.35 62.021 76.95C62.671 77.54 62.996 78.365 62.996 79.425C62.996 79.925 62.911 80.405 62.741 80.865C62.581 81.325 62.311 81.8 61.931 82.29C61.551 82.78 61.031 83.32 60.371 83.91C59.721 84.49 58.906 85.155 57.926 85.905L57.371 85.23H63.206V87H55.376ZM67.9231 87.15C67.1631 87.15 66.4781 87.015 65.8681 86.745C65.2681 86.465 64.7781 86.06 64.3981 85.53C64.0281 84.99 63.8131 84.335 63.7531 83.565H66.0481C66.1281 84.185 66.3181 84.645 66.6181 84.945C66.9181 85.235 67.3231 85.38 67.8331 85.38C68.2731 85.38 68.6381 85.25 68.9281 84.99C69.2281 84.73 69.3781 84.35 69.3781 83.85C69.3781 83.37 69.2331 82.985 68.9431 82.695C68.6631 82.395 68.1831 82.245 67.5031 82.245H66.5431V80.505H67.4581C68.0481 80.505 68.4731 80.375 68.7331 80.115C68.9931 79.855 69.1231 79.525 69.1231 79.125C69.1231 78.745 69.0231 78.435 68.8231 78.195C68.6231 77.945 68.2831 77.82 67.8031 77.82C67.3931 77.82 67.0381 77.945 66.7381 78.195C66.4381 78.445 66.2531 78.825 66.1831 79.335H63.8731C63.9631 78.655 64.1781 78.07 64.5181 77.58C64.8581 77.09 65.3131 76.715 65.8831 76.455C66.4531 76.185 67.1181 76.05 67.8781 76.05C68.6381 76.05 69.2881 76.17 69.8281 76.41C70.3781 76.64 70.8031 76.97 71.1031 77.4C71.4031 77.83 71.5531 78.345 71.5531 78.945C71.5531 79.445 71.4381 79.885 71.2081 80.265C70.9781 80.645 70.6881 80.94 70.3381 81.15C69.9981 81.36 69.6531 81.465 69.3031 81.465L69.2881 81.15C69.8181 81.15 70.2731 81.28 70.6531 81.54C71.0331 81.79 71.3231 82.13 71.5231 82.56C71.7231 82.98 71.8231 83.45 71.8231 83.97C71.8231 84.62 71.6531 85.185 71.3131 85.665C70.9731 86.145 70.5081 86.515 69.9181 86.775C69.3281 87.025 68.6631 87.15 67.9231 87.15ZM77.8229 87V84.15L77.9429 83.85V77.685L78.8579 78.18L74.4779 83.985L73.4129 83.19H81.2429V84.96H72.5729V83.19L77.8829 76.2H80.1629V87H77.8229ZM87.1754 87V78.18L87.4304 78.405C87.2804 78.715 87.0654 79.005 86.7854 79.275C86.5054 79.535 86.1754 79.76 85.7954 79.95C85.4254 80.13 85.0104 80.265 84.5504 80.355V78.105C84.9204 78.055 85.3054 77.935 85.7054 77.745C86.1054 77.545 86.4654 77.31 86.7854 77.04C87.1154 76.76 87.3504 76.48 87.4904 76.2H89.4254V87H87.1754ZM90.5762 87V85.2C91.5662 84.39 92.3912 83.695 93.0512 83.115C93.7212 82.525 94.2512 82.005 94.6412 81.555C95.0412 81.105 95.3262 80.695 95.4962 80.325C95.6662 79.955 95.7512 79.585 95.7512 79.215C95.7512 78.775 95.6312 78.435 95.3912 78.195C95.1612 77.945 94.8362 77.82 94.4162 77.82C93.9762 77.82 93.6112 77.955 93.3212 78.225C93.0312 78.495 92.8512 78.865 92.7812 79.335H90.4712C90.5812 78.315 90.9962 77.515 91.7162 76.935C92.4362 76.345 93.3662 76.05 94.5062 76.05C95.6662 76.05 96.5712 76.35 97.2212 76.95C97.8712 77.54 98.1962 78.365 98.1962 79.425C98.1962 79.925 98.1112 80.405 97.9412 80.865C97.7812 81.325 97.5112 81.8 97.1312 82.29C96.7512 82.78 96.2312 83.32 95.5712 83.91C94.9212 84.49 94.1062 85.155 93.1262 85.905L92.5712 85.23H98.4062V87H90.5762ZM103.123 87.15C102.363 87.15 101.678 87.015 101.068 86.745C100.468 86.465 99.9783 86.06 99.5983 85.53C99.2283 84.99 99.0133 84.335 98.9533 83.565H101.248C101.328 84.185 101.518 84.645 101.818 84.945C102.118 85.235 102.523 85.38 103.033 85.38C103.473 85.38 103.838 85.25 104.128 84.99C104.428 84.73 104.578 84.35 104.578 83.85C104.578 83.37 104.433 82.985 104.143 82.695C103.863 82.395 103.383 82.245 102.703 82.245H101.743V80.505H102.658C103.248 80.505 103.673 80.375 103.933 80.115C104.193 79.855 104.323 79.525 104.323 79.125C104.323 78.745 104.223 78.435 104.023 78.195C103.823 77.945 103.483 77.82 103.003 77.82C102.593 77.82 102.238 77.945 101.938 78.195C101.638 78.445 101.453 78.825 101.383 79.335H99.0733C99.1633 78.655 99.3783 78.07 99.7183 77.58C100.058 77.09 100.513 76.715 101.083 76.455C101.653 76.185 102.318 76.05 103.078 76.05C103.838 76.05 104.488 76.17 105.028 76.41C105.578 76.64 106.003 76.97 106.303 77.4C106.603 77.83 106.753 78.345 106.753 78.945C106.753 79.445 106.638 79.885 106.408 80.265C106.178 80.645 105.888 80.94 105.538 81.15C105.198 81.36 104.853 81.465 104.503 81.465L104.488 81.15C105.018 81.15 105.473 81.28 105.853 81.54C106.233 81.79 106.523 82.13 106.723 82.56C106.923 82.98 107.023 83.45 107.023 83.97C107.023 84.62 106.853 85.185 106.513 85.665C106.173 86.145 105.708 86.515 105.118 86.775C104.528 87.025 103.863 87.15 103.123 87.15ZM113.023 87V84.15L113.143 83.85V77.685L114.058 78.18L109.678 83.985L108.613 83.19H116.443V84.96H107.773V83.19L113.083 76.2H115.363V87H113.023ZM121.956 80.895L122.376 79.305L121.161 80.46L120.201 78.84L121.836 78.39L120.201 77.955L121.161 76.335L122.376 77.49L121.956 75.9H123.876L123.456 77.49L124.671 76.335L125.616 77.955L123.996 78.39L125.616 78.84L124.671 80.46L123.456 79.305L123.876 80.895H121.956ZM128.21 80.895L128.63 79.305L127.415 80.46L126.455 78.84L128.09 78.39L126.455 77.955L127.415 76.335L128.63 77.49L128.21 75.9H130.13L129.71 77.49L130.925 76.335L131.87 77.955L130.25 78.39L131.87 78.84L130.925 80.46L129.71 79.305L130.13 80.895H128.21ZM134.465 80.895L134.885 79.305L133.67 80.46L132.71 78.84L134.345 78.39L132.71 77.955L133.67 76.335L134.885 77.49L134.465 75.9H136.385L135.965 77.49L137.18 76.335L138.125 77.955L136.505 78.39L138.125 78.84L137.18 80.46L135.965 79.305L136.385 80.895H134.465ZM140.72 80.895L141.14 79.305L139.925 80.46L138.965 78.84L140.6 78.39L138.965 77.955L139.925 76.335L141.14 77.49L140.72 75.9H142.64L142.22 77.49L143.435 76.335L144.38 77.955L142.76 78.39L144.38 78.84L143.435 80.46L142.22 79.305L142.64 80.895H140.72Z" fill="black"/>
<path opacity="0.7" d="M16.01 69.15C15.63 69.15 15.265 69.12 14.915 69.06C14.565 69.01 14.31 68.945 14.15 68.865V67.095C14.33 67.165 14.545 67.225 14.795 67.275C15.045 67.325 15.3 67.35 15.56 67.35C16.12 67.35 16.525 67.26 16.775 67.08C17.035 66.89 17.165 66.55 17.165 66.06V58.2H19.475V66.165C19.475 67.165 19.18 67.915 18.59 68.415C18 68.905 17.14 69.15 16.01 69.15ZM25.7502 69C25.6902 68.78 25.6452 68.545 25.6152 68.295C25.5952 68.045 25.5852 67.755 25.5852 67.425H25.5252V63.81C25.5252 63.5 25.4202 63.26 25.2102 63.09C25.0102 62.91 24.7102 62.82 24.3102 62.82C23.9302 62.82 23.6252 62.885 23.3952 63.015C23.1752 63.145 23.0302 63.335 22.9602 63.585H20.8152C20.9152 62.895 21.2702 62.325 21.8802 61.875C22.4902 61.425 23.3252 61.2 24.3852 61.2C25.4852 61.2 26.3252 61.445 26.9052 61.935C27.4852 62.425 27.7752 63.13 27.7752 64.05V67.425C27.7752 67.675 27.7902 67.93 27.8202 68.19C27.8602 68.44 27.9202 68.71 28.0002 69H25.7502ZM23.0802 69.15C22.3202 69.15 21.7152 68.96 21.2652 68.58C20.8152 68.19 20.5902 67.675 20.5902 67.035C20.5902 66.325 20.8552 65.755 21.3852 65.325C21.9252 64.885 22.6752 64.6 23.6352 64.47L25.8702 64.155V65.46L24.0102 65.745C23.6102 65.805 23.3152 65.915 23.1252 66.075C22.9352 66.235 22.8402 66.455 22.8402 66.735C22.8402 66.985 22.9302 67.175 23.1102 67.305C23.2902 67.435 23.5302 67.5 23.8302 67.5C24.3002 67.5 24.7002 67.375 25.0302 67.125C25.3602 66.865 25.5252 66.565 25.5252 66.225L25.7352 67.425C25.5152 67.995 25.1802 68.425 24.7302 68.715C24.2802 69.005 23.7302 69.15 23.0802 69.15ZM29.5045 69V61.35H31.7095V63.15H31.7545V69H29.5045ZM34.8295 69V64.26C34.8295 63.84 34.7195 63.525 34.4995 63.315C34.2895 63.105 33.9795 63 33.5695 63C33.2195 63 32.9045 63.08 32.6245 63.24C32.3545 63.4 32.1395 63.62 31.9795 63.9C31.8295 64.18 31.7545 64.51 31.7545 64.89L31.5595 63.045C31.8095 62.485 32.1745 62.04 32.6545 61.71C33.1445 61.37 33.7445 61.2 34.4545 61.2C35.3045 61.2 35.9545 61.44 36.4045 61.92C36.8545 62.39 37.0795 63.025 37.0795 63.825V69H34.8295ZM42.3916 69.15C41.5416 69.15 40.8016 68.985 40.1716 68.655C39.5416 68.315 39.0516 67.845 38.7016 67.245C38.3616 66.645 38.1916 65.955 38.1916 65.175C38.1916 64.385 38.3616 63.695 38.7016 63.105C39.0516 62.505 39.5366 62.04 40.1566 61.71C40.7766 61.37 41.4966 61.2 42.3166 61.2C43.1066 61.2 43.7916 61.36 44.3716 61.68C44.9516 62 45.4016 62.445 45.7216 63.015C46.0416 63.585 46.2016 64.255 46.2016 65.025C46.2016 65.185 46.1966 65.335 46.1866 65.475C46.1766 65.605 46.1616 65.73 46.1416 65.85H39.5116V64.365H44.3266L43.9366 64.635C43.9366 64.015 43.7866 63.56 43.4866 63.27C43.1966 62.97 42.7966 62.82 42.2866 62.82C41.6966 62.82 41.2366 63.02 40.9066 63.42C40.5866 63.82 40.4266 64.42 40.4266 65.22C40.4266 66 40.5866 66.58 40.9066 66.96C41.2366 67.34 41.7266 67.53 42.3766 67.53C42.7366 67.53 43.0466 67.47 43.3066 67.35C43.5666 67.23 43.7616 67.035 43.8916 66.765H46.0066C45.7566 67.505 45.3266 68.09 44.7166 68.52C44.1166 68.94 43.3416 69.15 42.3916 69.15ZM51.5213 69V67.2H54.2513C55.0313 67.2 55.6913 67.045 56.2313 66.735C56.7813 66.415 57.1963 65.98 57.4763 65.43C57.7663 64.88 57.9113 64.25 57.9113 63.54C57.9113 62.84 57.7713 62.225 57.4913 61.695C57.2113 61.165 56.7963 60.75 56.2463 60.45C55.7063 60.15 55.0413 60 54.2513 60H51.5663V58.2H54.2513C55.4613 58.2 56.5163 58.42 57.4163 58.86C58.3163 59.29 59.0113 59.91 59.5013 60.72C60.0013 61.52 60.2513 62.47 60.2513 63.57C60.2513 64.67 60.0013 65.63 59.5013 66.45C59.0013 67.26 58.3013 67.89 57.4013 68.34C56.5113 68.78 55.4663 69 54.2663 69H51.5213ZM50.1113 69V58.2H52.4213V69H50.1113ZM65.1999 69.15C64.3599 69.15 63.6199 68.985 62.9799 68.655C62.3499 68.315 61.8549 67.845 61.4949 67.245C61.1449 66.635 60.9699 65.935 60.9699 65.145C60.9699 64.355 61.1449 63.665 61.4949 63.075C61.8549 62.485 62.3499 62.025 62.9799 61.695C63.6199 61.365 64.3599 61.2 65.1999 61.2C66.0499 61.2 66.7899 61.365 67.4199 61.695C68.0599 62.025 68.5549 62.485 68.9049 63.075C69.2549 63.665 69.4299 64.355 69.4299 65.145C69.4299 65.935 69.2499 66.635 68.8899 67.245C68.5399 67.845 68.0449 68.315 67.4049 68.655C66.7749 68.985 66.0399 69.15 65.1999 69.15ZM65.1999 67.38C65.5499 67.38 65.8649 67.29 66.1449 67.11C66.4349 66.93 66.6649 66.675 66.8349 66.345C67.0049 66.005 67.0899 65.6 67.0899 65.13C67.0899 64.44 66.9049 63.91 66.5349 63.54C66.1749 63.16 65.7299 62.97 65.1999 62.97C64.6699 62.97 64.2199 63.16 63.8499 63.54C63.4899 63.92 63.3099 64.45 63.3099 65.13C63.3099 65.6 63.3949 66.005 63.5649 66.345C63.7349 66.675 63.9599 66.93 64.2399 67.11C64.5299 67.29 64.8499 67.38 65.1999 67.38ZM74.2227 69.15C73.3727 69.15 72.6327 68.985 72.0027 68.655C71.3727 68.315 70.8827 67.845 70.5327 67.245C70.1927 66.645 70.0227 65.955 70.0227 65.175C70.0227 64.385 70.1927 63.695 70.5327 63.105C70.8827 62.505 71.3677 62.04 71.9877 61.71C72.6077 61.37 73.3277 61.2 74.1477 61.2C74.9377 61.2 75.6227 61.36 76.2027 61.68C76.7827 62 77.2327 62.445 77.5527 63.015C77.8727 63.585 78.0327 64.255 78.0327 65.025C78.0327 65.185 78.0277 65.335 78.0177 65.475C78.0077 65.605 77.9927 65.73 77.9727 65.85H71.3427V64.365H76.1577L75.7677 64.635C75.7677 64.015 75.6177 63.56 75.3177 63.27C75.0277 62.97 74.6277 62.82 74.1177 62.82C73.5277 62.82 73.0677 63.02 72.7377 63.42C72.4177 63.82 72.2577 64.42 72.2577 65.22C72.2577 66 72.4177 66.58 72.7377 66.96C73.0677 67.34 73.5577 67.53 74.2077 67.53C74.5677 67.53 74.8777 67.47 75.1377 67.35C75.3977 67.23 75.5927 67.035 75.7227 66.765H77.8377C77.5877 67.505 77.1577 68.09 76.5477 68.52C75.9477 68.94 75.1727 69.15 74.2227 69.15Z" fill="black"/>
<path d="M5 36C5 36 50.5 36 50.5 0" stroke="black"/>
<g filter="url(#filter0_d_47_578)">
<ellipse cx="127.5" cy="34.5" rx="17" ry="16.5" fill="#270722"/>
</g>
</g>
<defs>
<filter id="filter0_d_47_578" x="106.5" y="18" width="42" height="41" filterUnits="userSpaceOnUse" color-interpolation-filters="sRGB">
<feFlood flood-opacity="0" result="BackgroundImageFix"/>
<feColorMatrix in="SourceAlpha" type="matrix" values="0 0 0 0 0 0 0 0 0 0 0 0 0 0 0 0 0 0 127 0" result="hardAlpha"/>
<feOffset dy="4"/>
<feGaussianBlur stdDeviation="2"/>
<feComposite in2="hardAlpha" operator="out"/>
<feColorMatrix type="matrix" values="0 0 0 0 0 0 0 0 0 0 0 0 0 0 0 0 0 0 0.25 0"/>
<feBlend mode="normal" in2="BackgroundImageFix" result="effect1_dropShadow_47_578"/>
<feBlend mode="normal" in="SourceGraphic" in2="effect1_dropShadow_47_578" result="shape"/>
</filter>
<clipPath id="clip0_47_578">
<rect width="155" height="100" fill="white"/>
</clipPath>
</defs>
</svg>
