<svg width="155" height="100" viewBox="0 0 155 100" fill="none" xmlns="http://www.w3.org/2000/svg">
<g clip-path="url(#clip0_47_584)">
<rect width="155" height="100" rx="25" fill="#FF5E74"/>
<path opacity="0.7" d="M16.775 87V78.18L17.03 78.405C16.88 78.715 16.665 79.005 16.385 79.275C16.105 79.535 15.775 79.76 15.395 79.95C15.025 80.13 14.61 80.265 14.15 80.355V78.105C14.52 78.055 14.905 77.935 15.305 77.745C15.705 77.545 16.065 77.31 16.385 77.04C16.715 76.76 16.95 76.48 17.09 76.2H19.025V87H16.775ZM20.1758 87V85.2C21.1658 84.39 21.9908 83.695 22.6508 83.115C23.3208 82.525 23.8508 82.005 24.2408 81.555C24.6408 81.105 24.9258 80.695 25.0958 80.325C25.2658 79.955 25.3508 79.585 25.3508 79.215C25.3508 78.775 25.2308 78.435 24.9908 78.195C24.7608 77.945 24.4358 77.82 24.0158 77.82C23.5758 77.82 23.2108 77.955 22.9208 78.225C22.6308 78.495 22.4508 78.865 22.3808 79.335H20.0708C20.1808 78.315 20.5958 77.515 21.3158 76.935C22.0358 76.345 22.9658 76.05 24.1058 76.05C25.2658 76.05 26.1708 76.35 26.8208 76.95C27.4708 77.54 27.7958 78.365 27.7958 79.425C27.7958 79.925 27.7108 80.405 27.5408 80.865C27.3808 81.325 27.1108 81.8 26.7308 82.29C26.3508 82.78 25.8308 83.32 25.1708 83.91C24.5208 84.49 23.7058 85.155 22.7258 85.905L22.1708 85.23H28.0058V87H20.1758ZM32.7229 87.15C31.9629 87.15 31.2779 87.015 30.6679 86.745C30.0679 86.465 29.5779 86.06 29.1979 85.53C28.8279 84.99 28.6129 84.335 28.5529 83.565H30.8479C30.9279 84.185 31.1179 84.645 31.4179 84.945C31.7179 85.235 32.1229 85.38 32.6329 85.38C33.0729 85.38 33.4379 85.25 33.7279 84.99C34.0279 84.73 34.1779 84.35 34.1779 83.85C34.1779 83.37 34.0329 82.985 33.7429 82.695C33.4629 82.395 32.9829 82.245 32.3029 82.245H31.3429V80.505H32.2579C32.8479 80.505 33.2729 80.375 33.5329 80.115C33.7929 79.855 33.9229 79.525 33.9229 79.125C33.9229 78.745 33.8229 78.435 33.6229 78.195C33.4229 77.945 33.0829 77.82 32.6029 77.82C32.1929 77.82 31.8379 77.945 31.5379 78.195C31.2379 78.445 31.0529 78.825 30.9829 79.335H28.6729C28.7629 78.655 28.9779 78.07 29.3179 77.58C29.6579 77.09 30.1129 76.715 30.6829 76.455C31.2529 76.185 31.9179 76.05 32.6779 76.05C33.4379 76.05 34.0879 76.17 34.6279 76.41C35.1779 76.64 35.6029 76.97 35.9029 77.4C36.2029 77.83 36.3529 78.345 36.3529 78.945C36.3529 79.445 36.2379 79.885 36.0079 80.265C35.7779 80.645 35.4879 80.94 35.1379 81.15C34.7979 81.36 34.4529 81.465 34.1029 81.465L34.0879 81.15C34.6179 81.15 35.0729 81.28 35.4529 81.54C35.8329 81.79 36.1229 82.13 36.3229 82.56C36.5229 82.98 36.6229 83.45 36.6229 83.97C36.6229 84.62 36.4529 85.185 36.1129 85.665C35.7729 86.145 35.3079 86.515 34.7179 86.775C34.1279 87.025 33.4629 87.15 32.7229 87.15ZM42.6227 87V84.15L42.7427 83.85V77.685L43.6577 78.18L39.2777 83.985L38.2127 83.19H46.0427V84.96H37.3727V83.19L42.6827 76.2H44.9627V87H42.6227ZM51.9752 87V78.18L52.2302 78.405C52.0802 78.715 51.8652 79.005 51.5852 79.275C51.3052 79.535 50.9752 79.76 50.5952 79.95C50.2252 80.13 49.8102 80.265 49.3502 80.355V78.105C49.7202 78.055 50.1052 77.935 50.5052 77.745C50.9052 77.545 51.2652 77.31 51.5852 77.04C51.9152 76.76 52.1502 76.48 52.2902 76.2H54.2252V87H51.9752ZM55.376 87V85.2C56.366 84.39 57.191 83.695 57.851 83.115C58.521 82.525 59.051 82.005 59.441 81.555C59.841 81.105 60.126 80.695 60.296 80.325C60.466 79.955 60.551 79.585 60.551 79.215C60.551 78.775 60.431 78.435 60.191 78.195C59.961 77.945 59.636 77.82 59.216 77.82C58.776 77.82 58.411 77.955 58.121 78.225C57.831 78.495 57.651 78.865 57.581 79.335H55.271C55.381 78.315 55.796 77.515 56.516 76.935C57.236 76.345 58.166 76.05 59.306 76.05C60.466 76.05 61.371 76.35 62.021 76.95C62.671 77.54 62.996 78.365 62.996 79.425C62.996 79.925 62.911 80.405 62.741 80.865C62.581 81.325 62.311 81.8 61.931 82.29C61.551 82.78 61.031 83.32 60.371 83.91C59.721 84.49 58.906 85.155 57.926 85.905L57.371 85.23H63.206V87H55.376ZM67.9231 87.15C67.1631 87.15 66.4781 87.015 65.8681 86.745C65.2681 86.465 64.7781 86.06 64.3981 85.53C64.0281 84.99 63.8131 84.335 63.7531 83.565H66.0481C66.1281 84.185 66.3181 84.645 66.6181 84.945C66.9181 85.235 67.3231 85.38 67.8331 85.38C68.2731 85.38 68.6381 85.25 68.9281 84.99C69.2281 84.73 69.3781 84.35 69.3781 83.85C69.3781 83.37 69.2331 82.985 68.9431 82.695C68.6631 82.395 68.1831 82.245 67.5031 82.245H66.5431V80.505H67.4581C68.0481 80.505 68.4731 80.375 68.7331 80.115C68.9931 79.855 69.1231 79.525 69.1231 79.125C69.1231 78.745 69.0231 78.435 68.8231 78.195C68.6231 77.945 68.2831 77.82 67.8031 77.82C67.3931 77.82 67.0381 77.945 66.7381 78.195C66.4381 78.445 66.2531 78.825 66.1831 79.335H63.8731C63.9631 78.655 64.1781 78.07 64.5181 77.58C64.8581 77.09 65.3131 76.715 65.8831 76.455C66.4531 76.185 67.1181 76.05 67.8781 76.05C68.6381 76.05 69.2881 76.17 69.8281 76.41C70.3781 76.64 70.8031 76.97 71.1031 77.4C71.4031 77.83 71.5531 78.345 71.5531 78.945C71.5531 79.445 71.4381 79.885 71.2081 80.265C70.9781 80.645 70.6881 80.94 70.3381 81.15C69.9981 81.36 69.6531 81.465 69.3031 81.465L69.2881 81.15C69.8181 81.15 70.2731 81.28 70.6531 81.54C71.0331 81.79 71.3231 82.13 71.5231 82.56C71.7231 82.98 71.8231 83.45 71.8231 83.97C71.8231 84.62 71.6531 85.185 71.3131 85.665C70.9731 86.145 70.5081 86.515 69.9181 86.775C69.3281 87.025 68.6631 87.15 67.9231 87.15ZM77.8229 87V84.15L77.9429 83.85V77.685L78.8579 78.18L74.4779 83.985L73.4129 83.19H81.2429V84.96H72.5729V83.19L77.8829 76.2H80.1629V87H77.8229ZM87.1754 87V78.18L87.4304 78.405C87.2804 78.715 87.0654 79.005 86.7854 79.275C86.5054 79.535 86.1754 79.76 85.7954 79.95C85.4254 80.13 85.0104 80.265 84.5504 80.355V78.105C84.9204 78.055 85.3054 77.935 85.7054 77.745C86.1054 77.545 86.4654 77.31 86.7854 77.04C87.1154 76.76 87.3504 76.48 87.4904 76.2H89.4254V87H87.1754ZM90.5762 87V85.2C91.5662 84.39 92.3912 83.695 93.0512 83.115C93.7212 82.525 94.2512 82.005 94.6412 81.555C95.0412 81.105 95.3262 80.695 95.4962 80.325C95.6662 79.955 95.7512 79.585 95.7512 79.215C95.7512 78.775 95.6312 78.435 95.3912 78.195C95.1612 77.945 94.8362 77.82 94.4162 77.82C93.9762 77.82 93.6112 77.955 93.3212 78.225C93.0312 78.495 92.8512 78.865 92.7812 79.335H90.4712C90.5812 78.315 90.9962 77.515 91.7162 76.935C92.4362 76.345 93.3662 76.05 94.5062 76.05C95.6662 76.05 96.5712 76.35 97.2212 76.95C97.8712 77.54 98.1962 78.365 98.1962 79.425C98.1962 79.925 98.1112 80.405 97.9412 80.865C97.7812 81.325 97.5112 81.8 97.1312 82.29C96.7512 82.78 96.2312 83.32 95.5712 83.91C94.9212 84.49 94.1062 85.155 93.1262 85.905L92.5712 85.23H98.4062V87H90.5762ZM103.123 87.15C102.363 87.15 101.678 87.015 101.068 86.745C100.468 86.465 99.9783 86.06 99.5983 85.53C99.2283 84.99 99.0133 84.335 98.9533 83.565H101.248C101.328 84.185 101.518 84.645 101.818 84.945C102.118 85.235 102.523 85.38 103.033 85.38C103.473 85.38 103.838 85.25 104.128 84.99C104.428 84.73 104.578 84.35 104.578 83.85C104.578 83.37 104.433 82.985 104.143 82.695C103.863 82.395 103.383 82.245 102.703 82.245H101.743V80.505H102.658C103.248 80.505 103.673 80.375 103.933 80.115C104.193 79.855 104.323 79.525 104.323 79.125C104.323 78.745 104.223 78.435 104.023 78.195C103.823 77.945 103.483 77.82 103.003 77.82C102.593 77.82 102.238 77.945 101.938 78.195C101.638 78.445 101.453 78.825 101.383 79.335H99.0733C99.1633 78.655 99.3783 78.07 99.7183 77.58C100.058 77.09 100.513 76.715 101.083 76.455C101.653 76.185 102.318 76.05 103.078 76.05C103.838 76.05 104.488 76.17 105.028 76.41C105.578 76.64 106.003 76.97 106.303 77.4C106.603 77.83 106.753 78.345 106.753 78.945C106.753 79.445 106.638 79.885 106.408 80.265C106.178 80.645 105.888 80.94 105.538 81.15C105.198 81.36 104.853 81.465 104.503 81.465L104.488 81.15C105.018 81.15 105.473 81.28 105.853 81.54C106.233 81.79 106.523 82.13 106.723 82.56C106.923 82.98 107.023 83.45 107.023 83.97C107.023 84.62 106.853 85.185 106.513 85.665C106.173 86.145 105.708 86.515 105.118 86.775C104.528 87.025 103.863 87.15 103.123 87.15ZM113.023 87V84.15L113.143 83.85V77.685L114.058 78.18L109.678 83.985L108.613 83.19H116.443V84.96H107.773V83.19L113.083 76.2H115.363V87H113.023ZM121.956 80.895L122.376 79.305L121.161 80.46L120.201 78.84L121.836 78.39L120.201 77.955L121.161 76.335L122.376 77.49L121.956 75.9H123.876L123.456 77.49L124.671 76.335L125.616 77.955L123.996 78.39L125.616 78.84L124.671 80.46L123.456 79.305L123.876 80.895H121.956ZM128.21 80.895L128.63 79.305L127.415 80.46L126.455 78.84L128.09 78.39L126.455 77.955L127.415 76.335L128.63 77.49L128.21 75.9H130.13L129.71 77.49L130.925 76.335L131.87 77.955L130.25 78.39L131.87 78.84L130.925 80.46L129.71 79.305L130.13 80.895H128.21ZM134.465 80.895L134.885 79.305L133.67 80.46L132.71 78.84L134.345 78.39L132.71 77.955L133.67 76.335L134.885 77.49L134.465 75.9H136.385L135.965 77.49L137.18 76.335L138.125 77.955L136.505 78.39L138.125 78.84L137.18 80.46L135.965 79.305L136.385 80.895H134.465ZM140.72 80.895L141.14 79.305L139.925 80.46L138.965 78.84L140.6 78.39L138.965 77.955L139.925 76.335L141.14 77.49L140.72 75.9H142.64L142.22 77.49L143.435 76.335L144.38 77.955L142.76 78.39L144.38 78.84L143.435 80.46L142.22 79.305L142.64 80.895H140.72Z" fill="black"/>
<path opacity="0.7" d="M14.75 69V58.2H17.06V69H14.75ZM16.325 63.39L21.185 58.2H24.26L19.13 63.39H16.325ZM21.425 69L16.295 63.39H19.13L24.56 69H21.425ZM29.9543 69C29.8943 68.78 29.8493 68.545 29.8193 68.295C29.7993 68.045 29.7893 67.755 29.7893 67.425H29.7293V63.81C29.7293 63.5 29.6243 63.26 29.4143 63.09C29.2143 62.91 28.9143 62.82 28.5143 62.82C28.1343 62.82 27.8293 62.885 27.5993 63.015C27.3793 63.145 27.2343 63.335 27.1643 63.585H25.0193C25.1193 62.895 25.4743 62.325 26.0843 61.875C26.6943 61.425 27.5293 61.2 28.5893 61.2C29.6893 61.2 30.5293 61.445 31.1093 61.935C31.6893 62.425 31.9793 63.13 31.9793 64.05V67.425C31.9793 67.675 31.9943 67.93 32.0243 68.19C32.0643 68.44 32.1243 68.71 32.2043 69H29.9543ZM27.2843 69.15C26.5243 69.15 25.9193 68.96 25.4693 68.58C25.0193 68.19 24.7943 67.675 24.7943 67.035C24.7943 66.325 25.0593 65.755 25.5893 65.325C26.1293 64.885 26.8793 64.6 27.8393 64.47L30.0743 64.155V65.46L28.2143 65.745C27.8143 65.805 27.5193 65.915 27.3293 66.075C27.1393 66.235 27.0443 66.455 27.0443 66.735C27.0443 66.985 27.1343 67.175 27.3143 67.305C27.4943 67.435 27.7343 67.5 28.0343 67.5C28.5043 67.5 28.9043 67.375 29.2343 67.125C29.5643 66.865 29.7293 66.565 29.7293 66.225L29.9393 67.425C29.7193 67.995 29.3843 68.425 28.9343 68.715C28.4843 69.005 27.9343 69.15 27.2843 69.15ZM33.7086 69V61.35H35.9136V63.15H35.9586V69H33.7086ZM39.0336 69V64.26C39.0336 63.84 38.9236 63.525 38.7036 63.315C38.4936 63.105 38.1836 63 37.7736 63C37.4236 63 37.1086 63.08 36.8286 63.24C36.5586 63.4 36.3436 63.62 36.1836 63.9C36.0336 64.18 35.9586 64.51 35.9586 64.89L35.7636 63.045C36.0136 62.485 36.3786 62.04 36.8586 61.71C37.3486 61.37 37.9486 61.2 38.6586 61.2C39.5086 61.2 40.1586 61.44 40.6086 61.92C41.0586 62.39 41.2836 63.025 41.2836 63.825V69H39.0336ZM46.5957 69.15C45.7457 69.15 45.0057 68.985 44.3757 68.655C43.7457 68.315 43.2557 67.845 42.9057 67.245C42.5657 66.645 42.3957 65.955 42.3957 65.175C42.3957 64.385 42.5657 63.695 42.9057 63.105C43.2557 62.505 43.7407 62.04 44.3607 61.71C44.9807 61.37 45.7007 61.2 46.5207 61.2C47.3107 61.2 47.9957 61.36 48.5757 61.68C49.1557 62 49.6057 62.445 49.9257 63.015C50.2457 63.585 50.4057 64.255 50.4057 65.025C50.4057 65.185 50.4007 65.335 50.3907 65.475C50.3807 65.605 50.3657 65.73 50.3457 65.85H43.7157V64.365H48.5307L48.1407 64.635C48.1407 64.015 47.9907 63.56 47.6907 63.27C47.4007 62.97 47.0007 62.82 46.4907 62.82C45.9007 62.82 45.4407 63.02 45.1107 63.42C44.7907 63.82 44.6307 64.42 44.6307 65.22C44.6307 66 44.7907 66.58 45.1107 66.96C45.4407 67.34 45.9307 67.53 46.5807 67.53C46.9407 67.53 47.2507 67.47 47.5107 67.35C47.7707 67.23 47.9657 67.035 48.0957 66.765H50.2107C49.9607 67.505 49.5307 68.09 48.9207 68.52C48.3207 68.94 47.5457 69.15 46.5957 69.15ZM54.3154 69V58.2H57.9154L60.9154 68.61H59.6104L62.6104 58.2H66.2254V69H63.9454V58.845H64.3354L61.4104 69H59.0254L56.1304 58.935H56.5054V69H54.3154ZM72.6838 69C72.6238 68.78 72.5788 68.545 72.5488 68.295C72.5288 68.045 72.5188 67.755 72.5188 67.425H72.4588V63.81C72.4588 63.5 72.3538 63.26 72.1438 63.09C71.9438 62.91 71.6438 62.82 71.2438 62.82C70.8638 62.82 70.5588 62.885 70.3288 63.015C70.1088 63.145 69.9638 63.335 69.8938 63.585H67.7488C67.8488 62.895 68.2038 62.325 68.8138 61.875C69.4238 61.425 70.2588 61.2 71.3188 61.2C72.4188 61.2 73.2588 61.445 73.8388 61.935C74.4188 62.425 74.7088 63.13 74.7088 64.05V67.425C74.7088 67.675 74.7238 67.93 74.7538 68.19C74.7938 68.44 74.8538 68.71 74.9338 69H72.6838ZM70.0138 69.15C69.2538 69.15 68.6488 68.96 68.1988 68.58C67.7488 68.19 67.5238 67.675 67.5238 67.035C67.5238 66.325 67.7888 65.755 68.3188 65.325C68.8588 64.885 69.6088 64.6 70.5688 64.47L72.8038 64.155V65.46L70.9438 65.745C70.5438 65.805 70.2488 65.915 70.0588 66.075C69.8688 66.235 69.7738 66.455 69.7738 66.735C69.7738 66.985 69.8638 67.175 70.0438 67.305C70.2238 67.435 70.4638 67.5 70.7638 67.5C71.2338 67.5 71.6338 67.375 71.9638 67.125C72.2938 66.865 72.4588 66.565 72.4588 66.225L72.6688 67.425C72.4488 67.995 72.1138 68.425 71.6638 68.715C71.2138 69.005 70.6638 69.15 70.0138 69.15ZM79.5407 69.165C78.5607 69.165 77.8307 68.93 77.3507 68.46C76.8807 67.98 76.6457 67.255 76.6457 66.285V59.64L78.8957 58.8V66.36C78.8957 66.7 78.9907 66.955 79.1807 67.125C79.3707 67.295 79.6657 67.38 80.0657 67.38C80.2157 67.38 80.3557 67.365 80.4857 67.335C80.6157 67.305 80.7457 67.27 80.8757 67.23V68.94C80.7457 69.01 80.5607 69.065 80.3207 69.105C80.0907 69.145 79.8307 69.165 79.5407 69.165ZM75.2207 63.06V61.35H80.8757V63.06H75.2207Z" fill="black"/>
<path d="M5 36C5 36 50.5 36 50.5 0" stroke="black"/>
<g filter="url(#filter0_d_47_584)">
<ellipse cx="127.5" cy="34.5" rx="17" ry="16.5" fill="#270722"/>
</g>
</g>
<defs>
<filter id="filter0_d_47_584" x="106.5" y="18" width="42" height="41" filterUnits="userSpaceOnUse" color-interpolation-filters="sRGB">
<feFlood flood-opacity="0" result="BackgroundImageFix"/>
<feColorMatrix in="SourceAlpha" type="matrix" values="0 0 0 0 0 0 0 0 0 0 0 0 0 0 0 0 0 0 127 0" result="hardAlpha"/>
<feOffset dy="4"/>
<feGaussianBlur stdDeviation="2"/>
<feComposite in2="hardAlpha" operator="out"/>
<feColorMatrix type="matrix" values="0 0 0 0 0 0 0 0 0 0 0 0 0 0 0 0 0 0 0.25 0"/>
<feBlend mode="normal" in2="BackgroundImageFix" result="effect1_dropShadow_47_584"/>
<feBlend mode="normal" in="SourceGraphic" in2="effect1_dropShadow_47_584" result="shape"/>
</filter>
<clipPath id="clip0_47_584">
<rect width="155" height="100" fill="white"/>
</clipPath>
</defs>
</svg>
