<svg width="40" height="40" viewBox="0 0 40 40" fill="none" xmlns="http://www.w3.org/2000/svg">
<rect width="40" height="40" rx="5" fill="#FF5E74"/>
<g filter="url(#filter0_d_31_295)">
<path d="M18.704 28.928C17.744 28.928 16.888 28.432 16.136 27.44C15.112 27.744 14.176 27.896 13.328 27.896C12.4 27.896 11.672 27.72 11.144 27.368C10.616 27.032 10.352 26.608 10.352 26.096C10.352 25.696 10.52 25.264 10.856 24.8C11.192 24.336 11.712 23.88 12.416 23.432C12.704 23.256 13.016 23.08 13.352 22.904C13.704 22.728 14.08 22.568 14.48 22.424C14.432 21.912 14.408 21.368 14.408 20.792C14.408 19.48 14.552 18.04 14.84 16.472C15.128 14.888 15.608 13.184 16.28 11.36C15.096 11.952 14.008 12.656 13.016 13.472C12.024 14.272 11.256 15.096 10.712 15.944C10.536 16.232 10.32 16.376 10.064 16.376C9.888 16.376 9.8 16.288 9.8 16.112C9.8 15.984 9.872 15.792 10.016 15.536C10.144 15.28 10.376 14.96 10.712 14.576C11.352 13.84 12.184 13.128 13.208 12.44C14.232 11.752 15.352 11.16 16.568 10.664C16.84 9.912 17.152 9.176 17.504 8.456C17.6 8.248 17.744 8.144 17.936 8.144C18.064 8.144 18.168 8.192 18.248 8.288C18.344 8.368 18.392 8.472 18.392 8.6C18.392 8.664 18.376 8.744 18.344 8.84C18.248 9.064 18.152 9.288 18.056 9.512C17.976 9.736 17.896 9.96 17.816 10.184C18.04 10.104 18.272 10.032 18.512 9.968C18.752 9.904 18.984 9.84 19.208 9.776C20.456 9.488 21.568 9.344 22.544 9.344C23.824 9.344 24.88 9.56 25.712 9.992C26.544 10.424 27.16 11.016 27.56 11.768C27.96 12.504 28.16 13.344 28.16 14.288C28.16 15.264 27.952 16.296 27.536 17.384C27.136 18.472 26.544 19.568 25.76 20.672C24.976 21.76 24 22.792 22.832 23.768C21.68 24.744 20.36 25.608 18.872 26.36C18.088 26.744 17.344 27.056 16.64 27.296C17.024 27.696 17.416 27.976 17.816 28.136C18.216 28.296 18.544 28.376 18.8 28.376C19.024 28.376 19.184 28.328 19.28 28.232C19.424 28.072 19.576 27.992 19.736 27.992C19.848 27.992 19.944 28.024 20.024 28.088C20.104 28.152 20.144 28.224 20.144 28.304C20.144 28.432 20.04 28.552 19.832 28.664C19.64 28.76 19.448 28.824 19.256 28.856C19.064 28.904 18.88 28.928 18.704 28.928ZM16.4 27.008C16.768 26.88 17.152 26.72 17.552 26.528C17.968 26.352 18.392 26.136 18.824 25.88C20.632 24.84 22.128 23.672 23.312 22.376C24.512 21.064 25.408 19.736 26 18.392C26.608 17.048 26.912 15.8 26.912 14.648C26.912 13.272 26.496 12.144 25.664 11.264C24.832 10.368 23.584 9.92 21.92 9.92C21.12 9.92 20.216 10.04 19.208 10.28C18.936 10.344 18.664 10.424 18.392 10.52C18.12 10.6 17.848 10.696 17.576 10.808C16.6 13.368 15.928 15.584 15.56 17.456C15.192 19.312 15.016 20.896 15.032 22.208C15.816 21.936 16.656 21.72 17.552 21.56C18.464 21.4 19.408 21.32 20.384 21.32C20.56 21.32 20.736 21.328 20.912 21.344C21.104 21.344 21.296 21.352 21.488 21.368C21.696 21.384 21.8 21.432 21.8 21.512C21.8 21.64 21.56 21.704 21.08 21.704C20.872 21.704 20.656 21.696 20.432 21.68C20.224 21.664 20.016 21.656 19.808 21.656C18.912 21.656 18.056 21.744 17.24 21.92C16.424 22.096 15.688 22.32 15.032 22.592C15.08 23.664 15.232 24.56 15.488 25.28C15.744 25.984 16.048 26.56 16.4 27.008ZM14 27.44C14.56 27.44 15.2 27.344 15.92 27.152C15.584 26.64 15.288 26.024 15.032 25.304C14.792 24.568 14.616 23.736 14.504 22.808C13.736 23.192 13.112 23.6 12.632 24.032C12.264 24.352 11.992 24.672 11.816 24.992C11.64 25.312 11.552 25.608 11.552 25.88C11.552 26.328 11.768 26.696 12.2 26.984C12.632 27.288 13.232 27.44 14 27.44Z" fill="white"/>
</g>
<defs>
<filter id="filter0_d_31_295" x="9.80005" y="8.14398" width="20.36" height="22.784" filterUnits="userSpaceOnUse" color-interpolation-filters="sRGB">
<feFlood flood-opacity="0" result="BackgroundImageFix"/>
<feColorMatrix in="SourceAlpha" type="matrix" values="0 0 0 0 0 0 0 0 0 0 0 0 0 0 0 0 0 0 127 0" result="hardAlpha"/>
<feOffset dx="2" dy="2"/>
<feComposite in2="hardAlpha" operator="out"/>
<feColorMatrix type="matrix" values="0 0 0 0 0 0 0 0 0 0 0 0 0 0 0 0 0 0 1 0"/>
<feBlend mode="normal" in2="BackgroundImageFix" result="effect1_dropShadow_31_295"/>
<feBlend mode="normal" in="SourceGraphic" in2="effect1_dropShadow_31_295" result="shape"/>
</filter>
</defs>
</svg>
