<svg width="155" height="100" viewBox="0 0 155 100" fill="none" xmlns="http://www.w3.org/2000/svg">
<g clip-path="url(#clip0_47_614)">
<rect width="155" height="100" rx="25" fill="#FF5E74"/>
<path opacity="0.7" d="M16.775 87V78.18L17.03 78.405C16.88 78.715 16.665 79.005 16.385 79.275C16.105 79.535 15.775 79.76 15.395 79.95C15.025 80.13 14.61 80.265 14.15 80.355V78.105C14.52 78.055 14.905 77.935 15.305 77.745C15.705 77.545 16.065 77.31 16.385 77.04C16.715 76.76 16.95 76.48 17.09 76.2H19.025V87H16.775ZM20.1758 87V85.2C21.1658 84.39 21.9908 83.695 22.6508 83.115C23.3208 82.525 23.8508 82.005 24.2408 81.555C24.6408 81.105 24.9258 80.695 25.0958 80.325C25.2658 79.955 25.3508 79.585 25.3508 79.215C25.3508 78.775 25.2308 78.435 24.9908 78.195C24.7608 77.945 24.4358 77.82 24.0158 77.82C23.5758 77.82 23.2108 77.955 22.9208 78.225C22.6308 78.495 22.4508 78.865 22.3808 79.335H20.0708C20.1808 78.315 20.5958 77.515 21.3158 76.935C22.0358 76.345 22.9658 76.05 24.1058 76.05C25.2658 76.05 26.1708 76.35 26.8208 76.95C27.4708 77.54 27.7958 78.365 27.7958 79.425C27.7958 79.925 27.7108 80.405 27.5408 80.865C27.3808 81.325 27.1108 81.8 26.7308 82.29C26.3508 82.78 25.8308 83.32 25.1708 83.91C24.5208 84.49 23.7058 85.155 22.7258 85.905L22.1708 85.23H28.0058V87H20.1758ZM32.7229 87.15C31.9629 87.15 31.2779 87.015 30.6679 86.745C30.0679 86.465 29.5779 86.06 29.1979 85.53C28.8279 84.99 28.6129 84.335 28.5529 83.565H30.8479C30.9279 84.185 31.1179 84.645 31.4179 84.945C31.7179 85.235 32.1229 85.38 32.6329 85.38C33.0729 85.38 33.4379 85.25 33.7279 84.99C34.0279 84.73 34.1779 84.35 34.1779 83.85C34.1779 83.37 34.0329 82.985 33.7429 82.695C33.4629 82.395 32.9829 82.245 32.3029 82.245H31.3429V80.505H32.2579C32.8479 80.505 33.2729 80.375 33.5329 80.115C33.7929 79.855 33.9229 79.525 33.9229 79.125C33.9229 78.745 33.8229 78.435 33.6229 78.195C33.4229 77.945 33.0829 77.82 32.6029 77.82C32.1929 77.82 31.8379 77.945 31.5379 78.195C31.2379 78.445 31.0529 78.825 30.9829 79.335H28.6729C28.7629 78.655 28.9779 78.07 29.3179 77.58C29.6579 77.09 30.1129 76.715 30.6829 76.455C31.2529 76.185 31.9179 76.05 32.6779 76.05C33.4379 76.05 34.0879 76.17 34.6279 76.41C35.1779 76.64 35.6029 76.97 35.9029 77.4C36.2029 77.83 36.3529 78.345 36.3529 78.945C36.3529 79.445 36.2379 79.885 36.0079 80.265C35.7779 80.645 35.4879 80.94 35.1379 81.15C34.7979 81.36 34.4529 81.465 34.1029 81.465L34.0879 81.15C34.6179 81.15 35.0729 81.28 35.4529 81.54C35.8329 81.79 36.1229 82.13 36.3229 82.56C36.5229 82.98 36.6229 83.45 36.6229 83.97C36.6229 84.62 36.4529 85.185 36.1129 85.665C35.7729 86.145 35.3079 86.515 34.7179 86.775C34.1279 87.025 33.4629 87.15 32.7229 87.15ZM42.6227 87V84.15L42.7427 83.85V77.685L43.6577 78.18L39.2777 83.985L38.2127 83.19H46.0427V84.96H37.3727V83.19L42.6827 76.2H44.9627V87H42.6227ZM51.9752 87V78.18L52.2302 78.405C52.0802 78.715 51.8652 79.005 51.5852 79.275C51.3052 79.535 50.9752 79.76 50.5952 79.95C50.2252 80.13 49.8102 80.265 49.3502 80.355V78.105C49.7202 78.055 50.1052 77.935 50.5052 77.745C50.9052 77.545 51.2652 77.31 51.5852 77.04C51.9152 76.76 52.1502 76.48 52.2902 76.2H54.2252V87H51.9752ZM55.376 87V85.2C56.366 84.39 57.191 83.695 57.851 83.115C58.521 82.525 59.051 82.005 59.441 81.555C59.841 81.105 60.126 80.695 60.296 80.325C60.466 79.955 60.551 79.585 60.551 79.215C60.551 78.775 60.431 78.435 60.191 78.195C59.961 77.945 59.636 77.82 59.216 77.82C58.776 77.82 58.411 77.955 58.121 78.225C57.831 78.495 57.651 78.865 57.581 79.335H55.271C55.381 78.315 55.796 77.515 56.516 76.935C57.236 76.345 58.166 76.05 59.306 76.05C60.466 76.05 61.371 76.35 62.021 76.95C62.671 77.54 62.996 78.365 62.996 79.425C62.996 79.925 62.911 80.405 62.741 80.865C62.581 81.325 62.311 81.8 61.931 82.29C61.551 82.78 61.031 83.32 60.371 83.91C59.721 84.49 58.906 85.155 57.926 85.905L57.371 85.23H63.206V87H55.376ZM67.9231 87.15C67.1631 87.15 66.4781 87.015 65.8681 86.745C65.2681 86.465 64.7781 86.06 64.3981 85.53C64.0281 84.99 63.8131 84.335 63.7531 83.565H66.0481C66.1281 84.185 66.3181 84.645 66.6181 84.945C66.9181 85.235 67.3231 85.38 67.8331 85.38C68.2731 85.38 68.6381 85.25 68.9281 84.99C69.2281 84.73 69.3781 84.35 69.3781 83.85C69.3781 83.37 69.2331 82.985 68.9431 82.695C68.6631 82.395 68.1831 82.245 67.5031 82.245H66.5431V80.505H67.4581C68.0481 80.505 68.4731 80.375 68.7331 80.115C68.9931 79.855 69.1231 79.525 69.1231 79.125C69.1231 78.745 69.0231 78.435 68.8231 78.195C68.6231 77.945 68.2831 77.82 67.8031 77.82C67.3931 77.82 67.0381 77.945 66.7381 78.195C66.4381 78.445 66.2531 78.825 66.1831 79.335H63.8731C63.9631 78.655 64.1781 78.07 64.5181 77.58C64.8581 77.09 65.3131 76.715 65.8831 76.455C66.4531 76.185 67.1181 76.05 67.8781 76.05C68.6381 76.05 69.2881 76.17 69.8281 76.41C70.3781 76.64 70.8031 76.97 71.1031 77.4C71.4031 77.83 71.5531 78.345 71.5531 78.945C71.5531 79.445 71.4381 79.885 71.2081 80.265C70.9781 80.645 70.6881 80.94 70.3381 81.15C69.9981 81.36 69.6531 81.465 69.3031 81.465L69.2881 81.15C69.8181 81.15 70.2731 81.28 70.6531 81.54C71.0331 81.79 71.3231 82.13 71.5231 82.56C71.7231 82.98 71.8231 83.45 71.8231 83.97C71.8231 84.62 71.6531 85.185 71.3131 85.665C70.9731 86.145 70.5081 86.515 69.9181 86.775C69.3281 87.025 68.6631 87.15 67.9231 87.15ZM77.8229 87V84.15L77.9429 83.85V77.685L78.8579 78.18L74.4779 83.985L73.4129 83.19H81.2429V84.96H72.5729V83.19L77.8829 76.2H80.1629V87H77.8229ZM87.1754 87V78.18L87.4304 78.405C87.2804 78.715 87.0654 79.005 86.7854 79.275C86.5054 79.535 86.1754 79.76 85.7954 79.95C85.4254 80.13 85.0104 80.265 84.5504 80.355V78.105C84.9204 78.055 85.3054 77.935 85.7054 77.745C86.1054 77.545 86.4654 77.31 86.7854 77.04C87.1154 76.76 87.3504 76.48 87.4904 76.2H89.4254V87H87.1754ZM90.5762 87V85.2C91.5662 84.39 92.3912 83.695 93.0512 83.115C93.7212 82.525 94.2512 82.005 94.6412 81.555C95.0412 81.105 95.3262 80.695 95.4962 80.325C95.6662 79.955 95.7512 79.585 95.7512 79.215C95.7512 78.775 95.6312 78.435 95.3912 78.195C95.1612 77.945 94.8362 77.82 94.4162 77.82C93.9762 77.82 93.6112 77.955 93.3212 78.225C93.0312 78.495 92.8512 78.865 92.7812 79.335H90.4712C90.5812 78.315 90.9962 77.515 91.7162 76.935C92.4362 76.345 93.3662 76.05 94.5062 76.05C95.6662 76.05 96.5712 76.35 97.2212 76.95C97.8712 77.54 98.1962 78.365 98.1962 79.425C98.1962 79.925 98.1112 80.405 97.9412 80.865C97.7812 81.325 97.5112 81.8 97.1312 82.29C96.7512 82.78 96.2312 83.32 95.5712 83.91C94.9212 84.49 94.1062 85.155 93.1262 85.905L92.5712 85.23H98.4062V87H90.5762ZM103.123 87.15C102.363 87.15 101.678 87.015 101.068 86.745C100.468 86.465 99.9783 86.06 99.5983 85.53C99.2283 84.99 99.0133 84.335 98.9533 83.565H101.248C101.328 84.185 101.518 84.645 101.818 84.945C102.118 85.235 102.523 85.38 103.033 85.38C103.473 85.38 103.838 85.25 104.128 84.99C104.428 84.73 104.578 84.35 104.578 83.85C104.578 83.37 104.433 82.985 104.143 82.695C103.863 82.395 103.383 82.245 102.703 82.245H101.743V80.505H102.658C103.248 80.505 103.673 80.375 103.933 80.115C104.193 79.855 104.323 79.525 104.323 79.125C104.323 78.745 104.223 78.435 104.023 78.195C103.823 77.945 103.483 77.82 103.003 77.82C102.593 77.82 102.238 77.945 101.938 78.195C101.638 78.445 101.453 78.825 101.383 79.335H99.0733C99.1633 78.655 99.3783 78.07 99.7183 77.58C100.058 77.09 100.513 76.715 101.083 76.455C101.653 76.185 102.318 76.05 103.078 76.05C103.838 76.05 104.488 76.17 105.028 76.41C105.578 76.64 106.003 76.97 106.303 77.4C106.603 77.83 106.753 78.345 106.753 78.945C106.753 79.445 106.638 79.885 106.408 80.265C106.178 80.645 105.888 80.94 105.538 81.15C105.198 81.36 104.853 81.465 104.503 81.465L104.488 81.15C105.018 81.15 105.473 81.28 105.853 81.54C106.233 81.79 106.523 82.13 106.723 82.56C106.923 82.98 107.023 83.45 107.023 83.97C107.023 84.62 106.853 85.185 106.513 85.665C106.173 86.145 105.708 86.515 105.118 86.775C104.528 87.025 103.863 87.15 103.123 87.15ZM113.023 87V84.15L113.143 83.85V77.685L114.058 78.18L109.678 83.985L108.613 83.19H116.443V84.96H107.773V83.19L113.083 76.2H115.363V87H113.023ZM121.956 80.895L122.376 79.305L121.161 80.46L120.201 78.84L121.836 78.39L120.201 77.955L121.161 76.335L122.376 77.49L121.956 75.9H123.876L123.456 77.49L124.671 76.335L125.616 77.955L123.996 78.39L125.616 78.84L124.671 80.46L123.456 79.305L123.876 80.895H121.956ZM128.21 80.895L128.63 79.305L127.415 80.46L126.455 78.84L128.09 78.39L126.455 77.955L127.415 76.335L128.63 77.49L128.21 75.9H130.13L129.71 77.49L130.925 76.335L131.87 77.955L130.25 78.39L131.87 78.84L130.925 80.46L129.71 79.305L130.13 80.895H128.21ZM134.465 80.895L134.885 79.305L133.67 80.46L132.71 78.84L134.345 78.39L132.71 77.955L133.67 76.335L134.885 77.49L134.465 75.9H136.385L135.965 77.49L137.18 76.335L138.125 77.955L136.505 78.39L138.125 78.84L137.18 80.46L135.965 79.305L136.385 80.895H134.465ZM140.72 80.895L141.14 79.305L139.925 80.46L138.965 78.84L140.6 78.39L138.965 77.955L139.925 76.335L141.14 77.49L140.72 75.9H142.64L142.22 77.49L143.435 76.335L144.38 77.955L142.76 78.39L144.38 78.84L143.435 80.46L142.22 79.305L142.64 80.895H140.72Z" fill="black"/>
<path opacity="0.7" d="M14.36 69L18.23 58.2H20.21L16.655 69H14.36ZM22.28 69L18.74 58.2H20.81L24.68 69H22.28ZM16.4 64.815H22.46V66.615H16.4V64.815ZM25.9449 69V61.35H28.1499V63.15H28.1949V69H25.9449ZM28.1949 65.01L27.9999 63.195C28.1799 62.545 28.4749 62.05 28.8849 61.71C29.2949 61.37 29.8049 61.2 30.4149 61.2C30.6049 61.2 30.7449 61.22 30.8349 61.26V63.36C30.7849 63.34 30.7149 63.33 30.6249 63.33C30.5349 63.32 30.4249 63.315 30.2949 63.315C29.5749 63.315 29.0449 63.445 28.7049 63.705C28.3649 63.955 28.1949 64.39 28.1949 65.01ZM35.7419 69.165C34.7619 69.165 34.0319 68.93 33.5519 68.46C33.0819 67.98 32.8469 67.255 32.8469 66.285V59.64L35.0969 58.8V66.36C35.0969 66.7 35.1919 66.955 35.3819 67.125C35.5719 67.295 35.8669 67.38 36.2669 67.38C36.4169 67.38 36.5569 67.365 36.6869 67.335C36.8169 67.305 36.9469 67.27 37.0769 67.23V68.94C36.9469 69.01 36.7619 69.065 36.5219 69.105C36.2919 69.145 36.0319 69.165 35.7419 69.165ZM31.4219 63.06V61.35H37.0769V63.06H31.4219ZM38.3521 69V61.35H40.6021V69H38.3521ZM38.2771 60.33V57.9H40.6771V60.33H38.2771ZM49.5416 69.135C48.1416 69.135 47.0216 68.825 46.1816 68.205C45.3416 67.575 44.8516 66.69 44.7116 65.55H46.9316C47.0016 66.13 47.2816 66.59 47.7716 66.93C48.2616 67.26 48.8866 67.425 49.6466 67.425C50.2666 67.425 50.7416 67.315 51.0716 67.095C51.4116 66.875 51.5816 66.58 51.5816 66.21C51.5816 65.86 51.4816 65.58 51.2816 65.37C51.0816 65.15 50.7366 64.975 50.2466 64.845L48.2366 64.29C47.2066 64 46.4516 63.605 45.9716 63.105C45.5016 62.595 45.2666 61.96 45.2666 61.2C45.2666 60.55 45.4316 59.99 45.7616 59.52C46.1016 59.04 46.5766 58.675 47.1866 58.425C47.7966 58.165 48.5116 58.035 49.3316 58.035C50.5916 58.035 51.5966 58.335 52.3466 58.935C53.0966 59.525 53.5216 60.31 53.6216 61.29H51.4016C51.3016 60.76 51.0566 60.37 50.6666 60.12C50.2866 59.87 49.7966 59.745 49.1966 59.745C48.6766 59.745 48.2616 59.845 47.9516 60.045C47.6416 60.245 47.4866 60.515 47.4866 60.855C47.4866 61.115 47.5716 61.355 47.7416 61.575C47.9116 61.785 48.2666 61.965 48.8066 62.115L50.8166 62.67C51.8766 62.96 52.6366 63.36 53.0966 63.87C53.5666 64.37 53.8016 65.005 53.8016 65.775C53.8016 66.855 53.4266 67.685 52.6766 68.265C51.9266 68.845 50.8816 69.135 49.5416 69.135ZM58.6074 69.15C57.7574 69.15 57.0174 68.985 56.3874 68.655C55.7574 68.315 55.2674 67.845 54.9174 67.245C54.5774 66.645 54.4074 65.955 54.4074 65.175C54.4074 64.385 54.5774 63.695 54.9174 63.105C55.2674 62.505 55.7524 62.04 56.3724 61.71C56.9924 61.37 57.7124 61.2 58.5324 61.2C59.3224 61.2 60.0074 61.36 60.5874 61.68C61.1674 62 61.6174 62.445 61.9374 63.015C62.2574 63.585 62.4174 64.255 62.4174 65.025C62.4174 65.185 62.4124 65.335 62.4024 65.475C62.3924 65.605 62.3774 65.73 62.3574 65.85H55.7274V64.365H60.5424L60.1524 64.635C60.1524 64.015 60.0024 63.56 59.7024 63.27C59.4124 62.97 59.0124 62.82 58.5024 62.82C57.9124 62.82 57.4524 63.02 57.1224 63.42C56.8024 63.82 56.6424 64.42 56.6424 65.22C56.6424 66 56.8024 66.58 57.1224 66.96C57.4524 67.34 57.9424 67.53 58.5924 67.53C58.9524 67.53 59.2624 67.47 59.5224 67.35C59.7824 67.23 59.9774 67.035 60.1074 66.765H62.2224C61.9724 67.505 61.5424 68.09 60.9324 68.52C60.3324 68.94 59.5574 69.15 58.6074 69.15ZM63.6207 69V58.2H65.8707V69H63.6207ZM67.6637 69V61.35H69.9137V69H67.6637ZM67.5887 60.33V57.9H69.9887V60.33H67.5887ZM71.7066 69V61.35H73.9116V63.15H73.9566V69H71.7066ZM76.8516 69V64.14C76.8516 63.75 76.7466 63.465 76.5366 63.285C76.3366 63.095 76.0516 63 75.6816 63C75.3616 63 75.0666 63.075 74.7966 63.225C74.5366 63.365 74.3316 63.57 74.1816 63.84C74.0316 64.1 73.9566 64.41 73.9566 64.77L73.7616 63.045C74.0116 62.485 74.3716 62.04 74.8416 61.71C75.3216 61.37 75.8966 61.2 76.5666 61.2C77.3666 61.2 77.9866 61.425 78.4266 61.875C78.8766 62.325 79.1016 62.89 79.1016 63.57V69H76.8516ZM81.9966 69V64.14C81.9966 63.75 81.8916 63.465 81.6816 63.285C81.4816 63.095 81.1966 63 80.8266 63C80.5066 63 80.2116 63.075 79.9416 63.225C79.6816 63.365 79.4766 63.57 79.3266 63.84C79.1766 64.1 79.1016 64.41 79.1016 64.77L78.7566 63.045C79.0066 62.485 79.3766 62.04 79.8666 61.71C80.3666 61.37 80.9666 61.2 81.6666 61.2C82.4966 61.2 83.1316 61.435 83.5716 61.905C84.0216 62.365 84.2466 62.97 84.2466 63.72V69H81.9966ZM85.8717 69V61.35H88.1217V69H85.8717ZM85.7967 60.33V57.9H88.1967V60.33H85.7967Z" fill="black"/>
<path d="M5 36C5 36 50.5 36 50.5 0" stroke="black"/>
<g filter="url(#filter0_d_47_614)">
<ellipse cx="127.5" cy="34.5" rx="17" ry="16.5" fill="#270722"/>
</g>
</g>
<defs>
<filter id="filter0_d_47_614" x="106.5" y="18" width="42" height="41" filterUnits="userSpaceOnUse" color-interpolation-filters="sRGB">
<feFlood flood-opacity="0" result="BackgroundImageFix"/>
<feColorMatrix in="SourceAlpha" type="matrix" values="0 0 0 0 0 0 0 0 0 0 0 0 0 0 0 0 0 0 127 0" result="hardAlpha"/>
<feOffset dy="4"/>
<feGaussianBlur stdDeviation="2"/>
<feComposite in2="hardAlpha" operator="out"/>
<feColorMatrix type="matrix" values="0 0 0 0 0 0 0 0 0 0 0 0 0 0 0 0 0 0 0.25 0"/>
<feBlend mode="normal" in2="BackgroundImageFix" result="effect1_dropShadow_47_614"/>
<feBlend mode="normal" in="SourceGraphic" in2="effect1_dropShadow_47_614" result="shape"/>
</filter>
<clipPath id="clip0_47_614">
<rect width="155" height="100" fill="white"/>
</clipPath>
</defs>
</svg>
