<svg width="269" height="275" viewBox="0 0 269 275" fill="none" xmlns="http://www.w3.org/2000/svg">
<g clip-path="url(#clip0_93_386)">
<path d="M3.66797 269.825C3.6692 269.917 3.68389 270.008 3.71119 270.093C3.7385 270.177 3.77788 270.254 3.82709 270.318C3.87629 270.382 3.93436 270.432 3.99796 270.465C4.06156 270.499 4.12945 270.515 4.19773 270.513H268.378C268.446 270.517 268.515 270.503 268.579 270.47C268.644 270.437 268.703 270.387 268.752 270.323C268.802 270.258 268.841 270.181 268.868 270.096C268.896 270.01 268.909 269.918 268.909 269.825C268.909 269.732 268.896 269.64 268.868 269.555C268.841 269.469 268.802 269.392 268.752 269.328C268.703 269.263 268.644 269.213 268.579 269.181C268.515 269.148 268.446 269.133 268.378 269.137H4.19773C4.12947 269.135 4.06161 269.151 3.99803 269.185C3.93445 269.218 3.8764 269.269 3.82719 269.333C3.77799 269.396 3.7386 269.473 3.71128 269.557C3.68396 269.642 3.66924 269.733 3.66797 269.825Z" fill="#CCCCCC"/>
<path d="M138.291 201.895C137.946 204.712 136.872 207.272 135.259 209.118C133.647 210.965 131.602 211.978 129.488 211.978C127.373 211.978 125.328 210.965 123.716 209.118C122.103 207.272 121.029 204.712 120.684 201.895H98.1626V267.799H160.812V201.895H138.291Z" fill="#D6D6E3"/>
<path d="M105.448 267.555H99.2559V269.03H105.448V267.555Z" fill="#B6B3C5"/>
<path d="M160.266 267.8H154.074V269.276H160.266V267.8Z" fill="#B6B3C5"/>
<path d="M160.996 262.579H98.3457V264.873H160.996V262.579Z" fill="#090814"/>
<path d="M255.483 203.617H3.49263C2.56665 203.615 1.6789 203.118 1.02413 202.234C0.369362 201.35 0.0010512 200.151 0 198.901L0 4.71645C0.000970344 3.46604 0.369245 2.26722 1.02402 1.38301C1.6788 0.498799 2.5666 0.00141961 3.49263 0H255.483C256.409 0.00141941 257.297 0.498742 257.952 1.38286C258.606 2.26698 258.975 3.4657 258.976 4.71603V198.901C258.975 200.151 258.606 201.35 257.952 202.234C257.297 203.118 256.409 203.615 255.483 203.617Z" fill="#090814"/>
<path d="M252.783 7.8694H6.19141V195.748H252.783V7.8694Z" fill="white"/>
<path d="M129.719 101.419L103.28 74.6785L77.2013 101.054L76.604 99.9785L103.28 72.9991L129.594 99.6126L155.742 60.9734L155.848 60.9157L182.225 46.5659L182.597 47.8125L156.325 62.1054L129.719 101.419Z" fill="#D6D6E3"/>
<path d="M209.184 150.916H50.1573C50.0254 150.916 49.8988 150.846 49.8054 150.719C49.7121 150.593 49.6597 150.423 49.6597 150.244V47.3245C49.6597 47.1463 49.7121 46.9754 49.8054 46.8493C49.8988 46.7233 50.0254 46.6525 50.1573 46.6525C50.2893 46.6525 50.4159 46.7233 50.5093 46.8493C50.6026 46.9754 50.655 47.1463 50.655 47.3245V149.572H209.184C209.316 149.572 209.442 149.643 209.536 149.769C209.629 149.895 209.681 150.066 209.681 150.244C209.681 150.423 209.629 150.593 209.536 150.719C209.442 150.846 209.316 150.916 209.184 150.916Z" fill="#3F3D56"/>
<path d="M84.1346 143.524H69.6703C69.2787 143.524 68.9031 143.313 68.6262 142.939C68.3492 142.566 68.1934 142.058 68.1929 141.53V114.606C68.1934 114.077 68.3492 113.57 68.6262 113.197C68.9031 112.823 69.2787 112.612 69.6703 112.612H84.1343C84.5259 112.612 84.9015 112.823 85.1784 113.197C85.4554 113.57 85.6112 114.077 85.6117 114.606V141.53C85.6112 142.059 85.4553 142.566 85.1784 142.939C84.9015 143.313 84.5261 143.524 84.1346 143.524Z" fill="#6C63FF"/>
<path d="M110.956 143.897H96.4916C96.1 143.897 95.7244 143.687 95.4475 143.313C95.1705 142.939 95.0146 142.432 95.0142 141.903V89.4436C95.0146 88.9148 95.1705 88.4078 95.4475 88.0338C95.7244 87.6599 96.1 87.4496 96.4916 87.4491H110.956C111.347 87.4496 111.723 87.6599 112 88.0338C112.277 88.4078 112.433 88.9148 112.433 89.4436V141.903C112.433 142.432 112.277 142.939 112 143.313C111.723 143.687 111.347 143.897 110.956 143.897H110.956Z" fill="#6C63FF"/>
<path d="M136.888 143.524H122.424C122.033 143.524 121.657 143.313 121.38 142.939C121.103 142.566 120.947 142.058 120.947 141.53V114.606C120.947 114.077 121.103 113.57 121.38 113.197C121.657 112.823 122.033 112.612 122.424 112.612H136.888C137.28 112.612 137.655 112.823 137.932 113.197C138.209 113.57 138.365 114.077 138.366 114.606V141.53C138.365 142.059 138.209 142.566 137.932 142.939C137.655 143.313 137.28 143.524 136.888 143.524Z" fill="#6C63FF"/>
<path d="M163.265 143.524H148.801C148.418 143.535 148.048 143.341 147.771 142.984C147.494 142.627 147.333 142.137 147.324 141.62V78.8999C147.333 78.383 147.494 77.8923 147.771 77.5353C148.048 77.1783 148.418 76.9841 148.801 76.9952H163.265C163.648 76.9841 164.018 77.1782 164.295 77.5351C164.572 77.8921 164.733 78.3827 164.743 78.8995V141.62C164.733 142.136 164.572 142.627 164.295 142.984C164.019 143.341 163.648 143.535 163.265 143.524Z" fill="#6C63FF"/>
<path d="M189.643 143.524H175.179C174.787 143.524 174.411 143.313 174.134 142.939C173.857 142.565 173.702 142.059 173.701 141.53V60.846C173.702 60.3171 173.857 59.8101 174.134 59.4362C174.411 59.0622 174.787 58.8519 175.179 58.8514H189.643C190.034 58.8519 190.41 59.0622 190.687 59.4362C190.964 59.8101 191.12 60.3171 191.12 60.846V141.53C191.12 142.059 190.964 142.565 190.687 142.939C190.41 143.313 190.035 143.524 189.643 143.524Z" fill="#6C63FF"/>
<path d="M76.84 104.355C78.5285 104.355 79.8973 102.622 79.8973 100.485C79.8973 98.3477 78.5285 96.6151 76.84 96.6151C75.1515 96.6151 73.7827 98.3477 73.7827 100.485C73.7827 102.622 75.1515 104.355 76.84 104.355Z" fill="#3F3D56"/>
<path d="M103.208 78.5554C104.897 78.5554 106.265 76.7072 106.265 74.4273C106.265 72.1473 104.897 70.2991 103.208 70.2991C101.52 70.2991 100.151 72.1473 100.151 74.4273C100.151 76.7072 101.52 78.5554 103.208 78.5554Z" fill="#3F3D56"/>
<path d="M129.576 104.355C131.264 104.355 132.633 102.622 132.633 100.485C132.633 98.3477 131.264 96.6151 129.576 96.6151C127.887 96.6151 126.519 98.3477 126.519 100.485C126.519 102.622 127.887 104.355 129.576 104.355Z" fill="#3F3D56"/>
<path d="M155.944 65.6552C157.632 65.6552 159.001 63.807 159.001 61.527C159.001 59.2471 157.632 57.3989 155.944 57.3989C154.256 57.3989 152.887 59.2471 152.887 61.527C152.887 63.807 154.256 65.6552 155.944 65.6552Z" fill="#3F3D56"/>
<path d="M182.312 51.2089C184 51.2089 185.369 49.3603 185.369 47.0799C185.369 44.7995 184 42.9509 182.312 42.9509C180.623 42.9509 179.254 44.7995 179.254 47.0799C179.254 49.3603 180.623 51.2089 182.312 51.2089Z" fill="#3F3D56"/>
<path d="M209.149 118.736C209.149 118.736 204.621 117.682 197.906 109.459C192.593 102.955 185.428 104.234 182.665 105.054C182.57 105.081 182.485 105.147 182.419 105.242C182.353 105.337 182.31 105.457 182.297 105.586C182.283 105.715 182.299 105.846 182.342 105.963C182.386 106.079 182.454 106.175 182.539 106.237C183.656 107.062 185.387 108.267 186.198 108.404C186.198 108.404 184.525 110.742 186.304 111.993C186.516 112.135 186.754 112.193 186.991 112.162C187.227 112.132 187.452 112.013 187.641 111.819C188.496 110.976 190.873 112.892 194.318 113.886C194.318 113.886 207.747 132.652 210.87 129.471L209.149 118.736Z" fill="#FFB9B9"/>
<path d="M232.269 93.2241C232.269 93.2241 233.518 100.393 232.269 105.453L237.891 106.507L242.887 103.133V98.7062C242.887 98.7062 240.545 91.9593 241.17 84.158L232.269 93.2241Z" fill="#FFB9B9"/>
<path d="M248.186 248.608C248.186 248.608 252.259 259.361 251.621 266.53C250.983 273.699 256.93 267.373 256.306 263.156C256.173 268.261 258.054 245.28 258.933 239.899C259.028 239.317 258.96 238.709 258.742 238.191C258.524 237.674 258.171 237.284 257.752 237.098C255.875 236.264 252.731 235.242 251.153 236.805C248.821 239.12 248.186 248.608 248.186 248.608Z" fill="#090814"/>
<path d="M232.738 260.415C232.738 260.415 227.429 269.692 226.024 269.903C224.619 270.114 223.681 273.066 226.024 273.698C230.7 274.797 235.51 274.164 239.941 271.865C240.385 271.631 240.757 271.203 240.999 270.65C241.241 270.096 241.339 269.449 241.276 268.812L240.38 259.782L232.738 260.415Z" fill="#090814"/>
<path d="M223.993 161.955L218.901 162.871C219.6 170.901 219.58 179.016 218.84 187.04V215.917C218.84 215.917 218.742 218.461 222.652 222.16C226.753 226.009 230.705 230.14 234.492 234.536L248.661 251.111C248.661 251.111 254.283 241.833 253.502 236.351C253.502 236.351 244.133 232.345 242.884 225.809C242.168 222.069 238.535 218.934 235.562 216.963C233.692 215.737 232.19 213.685 231.303 211.146C230.417 208.608 230.201 205.737 230.69 203.01C230.864 202.062 231.132 201.151 231.488 200.301C233.987 194.397 237.578 181.114 237.578 181.114L230.707 163.43L223.993 161.955Z" fill="#090814"/>
<path d="M231.489 261.061C231.489 261.061 240.702 263.169 241.014 264.434C241.326 265.7 241.014 262.748 241.014 262.748C241.014 262.748 246.325 241.031 245.088 221.849C243.85 202.666 246.649 190.011 246.649 190.011C246.649 190.011 249.928 175.673 248.054 167.45C246.181 159.228 226.506 162.812 226.506 162.812C226.506 162.812 233.377 184.529 233.22 194.861C233.22 194.861 234.001 226.065 235.406 229.65C235.393 229.632 233.207 260.204 231.489 261.061Z" fill="#090814"/>
<path d="M232.571 98.7062C232.571 98.7062 233.508 106.499 242.877 103.134L236.645 167.226C236.645 167.226 218.531 168.069 218.688 165.118L222.422 126.327L232.571 98.7062Z" fill="white"/>
<path d="M232.816 98.495C231.42 99.969 229.752 100.897 227.992 101.176C226.438 101.337 224.926 101.944 223.559 102.955C221.953 104.169 220.164 105.934 219.621 108.084C218.528 112.301 211.658 119.258 208.535 117.783L209.628 130.433C209.628 130.433 218.528 129.801 220.09 125.162L217.439 170.304H219.781C219.781 170.304 221.03 158.075 221.967 155.545C222.903 153.015 224.777 139.099 224.933 135.725C225.09 132.352 227.432 112.954 229.462 109.599L232.819 99.7949L232.816 98.495Z" fill="#D6D6E3"/>
<path opacity="0.1" d="M240.779 90.3777C240.575 88.3794 240.983 87.1323 241.17 84.7904L232.269 93.8566C232.269 93.8566 232.483 95.0805 232.646 96.8726C233.095 96.9706 233.549 97.0197 234.003 97.0194C237.093 97.0194 239.316 93.7604 240.779 90.3777Z" fill="black"/>
<path d="M233.987 96.3915C238.644 96.3915 242.42 91.2939 242.42 85.0057C242.42 78.7175 238.644 73.6199 233.987 73.6199C229.33 73.6199 225.555 78.7175 225.555 85.0057C225.555 91.2939 229.33 96.3915 233.987 96.3915Z" fill="#FFB9B9"/>
<path d="M225.512 75.3105C225.463 73.5388 225.676 71.7715 226.139 70.1126C226.01 70.3736 225.956 70.6886 225.986 70.9994C226.016 71.3103 226.128 71.5961 226.302 71.804C226.553 69.9955 227.24 68.3501 228.257 67.1251C227.703 67.2488 227.418 68.1741 227.555 68.9105C227.742 69.6295 228.075 70.2628 228.516 70.738C228.469 69.6242 229.015 68.5846 229.704 67.9741C230.422 67.4171 231.207 67.0335 232.022 66.8404C231.743 66.9745 231.504 67.2298 231.343 67.5665C231.182 67.9032 231.108 68.3024 231.132 68.7018C231.135 68.8375 231.176 68.9666 231.248 69.0615C231.326 69.1292 231.419 69.1618 231.512 69.1547C232.323 69.197 233.136 69.173 233.946 69.0829C234.941 68.9317 235.942 68.8596 236.944 68.8672C240.077 69.045 243.226 71.9343 243.928 76.0592C244.073 77.06 244.15 78.0768 244.157 79.0967L244.309 84.3044C244.399 85.8237 244.352 87.3519 244.172 88.8563C243.955 90.2451 243.513 91.5522 242.879 92.6842C242.245 93.8163 241.434 94.7453 240.503 95.4052C239.372 93.1928 239.272 90.3496 238.88 87.714C238.818 87.106 238.65 86.5265 238.391 86.0226C238.257 85.7734 238.069 85.5866 237.853 85.4881C237.637 85.3895 237.403 85.3842 237.185 85.4727C236.762 85.7013 236.58 86.5725 236.931 86.9619C236.618 87.4611 236.032 87.089 235.678 86.6447C234.69 85.3782 234.009 83.7363 233.726 81.9361C233.586 81.0306 233.445 79.9147 232.786 79.6049C232.56 79.5209 232.324 79.4993 232.091 79.5414C230.719 79.6684 228.572 80.4341 227.244 79.8458C226.025 79.3046 225.512 76.8719 225.512 75.3105Z" fill="#090814"/>
<path d="M208.47 117.787C208.47 117.787 207.221 125.58 209.564 130.438L210.891 130.291L210.168 117.915L208.47 117.787Z" fill="#D6D6E3"/>
<path d="M242.341 96.5103L252.413 108.212C252.413 108.212 258.346 116.435 255.848 129.719C255.848 129.719 254.755 149.117 253.506 149.96C253.506 149.96 249.133 161.767 248.821 172.942C248.821 172.942 242.653 156.18 239.995 165.879C237.338 175.578 231.485 177.795 231.485 177.795L234.921 120.45C234.921 120.45 243.59 100.076 242.341 96.5103Z" fill="#D6D6E3"/>
<path d="M246.947 145.935C246.947 145.935 249.446 143.616 253.505 149.942L243.512 174.4L240.155 167.556C240.155 167.556 247.261 148.676 246.947 145.935Z" fill="#FFB9B9"/>
<path d="M244.527 146.884C244.527 146.884 250.053 155.263 252.209 153.92L254.205 147.645L246.713 143.3L244.527 146.884Z" fill="#D6D6E3"/>
<path opacity="0.1" d="M245.308 121.161C245.308 121.161 245.62 136.342 244.371 142.035Z" fill="black"/>
<path opacity="0.1" d="M220.011 124.113C220.011 124.113 221.885 123.269 221.885 121.161Z" fill="black"/>
</g>
<defs>
<clipPath id="clip0_93_386">
<rect width="268.908" height="274.223" fill="white"/>
</clipPath>
</defs>
</svg>
